<svg width="21" height="19" viewBox="0 0 21 19" fill="none" xmlns="http://www.w3.org/2000/svg">
<path d="M0.337817 0.080422C0.237276 0.132703 0.140757 0.221179 0.0884759 0.317698L0 0.474542V4.80584V9.13714L0.0844543 9.28996C0.132714 9.37442 0.237276 9.47898 0.321731 9.52724L0.474553 9.61169H10.2914C19.8548 9.61169 20.1162 9.61169 20.261 9.53528C20.3495 9.49105 20.446 9.39453 20.5023 9.29801L20.5908 9.13714V4.80584V0.474542L20.5023 0.317698C20.446 0.217158 20.3535 0.132703 20.2489 0.080422C20.084 -1.06422e-05 19.9996 -1.06422e-05 10.2914 -1.06422e-05C0.554985 -1.06422e-05 0.502704 -1.06422e-05 0.337817 0.080422ZM4.14228 2.35265C5.25627 2.62612 6.03245 3.6275 6.03245 4.80584C6.03245 5.75495 5.48551 6.6759 4.70129 7.04991C4.21467 7.28317 3.96131 7.33143 3.26959 7.33545C2.602 7.33947 2.54972 7.32338 2.35668 7.06198C2.27624 6.95339 2.27222 6.89709 2.26016 4.95464C2.25211 3.85674 2.26016 2.87546 2.27222 2.77492C2.29233 2.63416 2.33657 2.56177 2.45722 2.44514C2.54167 2.36471 2.65428 2.2883 2.70254 2.27623C2.88351 2.23602 3.8849 2.2883 4.14228 2.35265ZM8.85564 2.29232C9.18943 2.38884 9.36236 2.77894 9.21356 3.11273C9.08889 3.39827 8.95618 3.45859 8.43739 3.45859H8.00305V3.83663V4.21466L8.26848 4.23075C8.5138 4.24683 8.54597 4.2589 8.67064 4.39161C8.91194 4.65704 8.89183 5.03105 8.6264 5.26431C8.51782 5.35681 8.43337 5.38898 8.24435 5.41311L8.00305 5.44126V5.79516V6.15309H8.41728C8.93205 6.15309 9.06878 6.20939 9.2015 6.48286C9.27791 6.63569 9.28997 6.70807 9.26987 6.84079C9.23367 7.04991 9.04868 7.26306 8.85564 7.31936C8.7752 7.33947 8.38913 7.35958 8.00305 7.35958C7.34752 7.35958 7.28318 7.35154 7.11829 7.26708C6.7845 7.09817 6.79656 7.18263 6.79656 4.81389C6.79656 2.99208 6.8046 2.71057 6.86091 2.59394C6.92927 2.44916 7.06199 2.3446 7.23492 2.29232C7.39176 2.24406 8.68271 2.24808 8.85564 2.29232ZM10.774 2.29232C10.8504 2.31243 10.959 2.37677 11.0153 2.42906C11.0716 2.48536 11.2927 2.87546 11.5019 3.29773C11.711 3.71598 11.892 4.06184 11.904 4.06184C11.9161 4.06184 12.0689 3.76826 12.2459 3.41436C12.6883 2.52558 12.7526 2.42503 12.9738 2.32852C13.1749 2.23602 13.3277 2.2521 13.5368 2.37677C13.7982 2.53362 13.7942 2.50547 13.7942 4.81389C13.7942 7.13839 13.7982 7.09013 13.5167 7.25502C13.3357 7.35958 13.018 7.35556 12.8773 7.251C12.6199 7.06198 12.6078 7.01774 12.5877 6.20135L12.5676 5.4493L12.4912 5.61821C12.3464 5.93994 12.089 6.09276 11.7874 6.02842C11.5944 5.9882 11.4576 5.8756 11.333 5.64636L11.2204 5.4493V6.14907C11.2204 6.76438 11.2123 6.87296 11.1399 7.01774C10.9388 7.42795 10.408 7.45208 10.1184 7.06198C10.038 6.95339 10.034 6.90111 10.0219 4.91443C10.0139 3.79239 10.0219 2.81513 10.034 2.74274C10.0661 2.57384 10.2672 2.3446 10.4321 2.29634C10.601 2.24808 10.6171 2.24808 10.774 2.29232ZM17.0236 2.37275C17.6148 2.55775 18.037 2.98404 18.2462 3.61544C18.3266 3.86076 18.3668 5.28844 18.3025 5.71071C18.214 6.29787 17.8561 6.83275 17.3775 7.09415C16.7943 7.40784 15.9981 7.39577 15.435 7.066C15.2179 6.93731 14.876 6.57938 14.7634 6.36221C14.5905 6.02038 14.5583 5.78712 14.5583 4.80584C14.5583 3.82456 14.5905 3.59131 14.7634 3.24947C14.868 3.04437 15.1736 2.71459 15.3827 2.58188C15.8372 2.29232 16.4927 2.20787 17.0236 2.37275Z" fill="black"/>
<path d="M3.4586 4.80986V6.16113L3.63153 6.13298C4.12217 6.05657 4.49216 5.80723 4.69324 5.41311C4.84607 5.11551 4.86617 4.65704 4.74553 4.32325C4.57662 3.87282 4.15837 3.55511 3.63153 3.48272L3.4586 3.4586V4.80986Z" fill="black"/>
<path d="M16.2394 3.49881C16.0624 3.55109 15.9015 3.68783 15.8211 3.84869C15.7527 3.98141 15.7447 4.10206 15.7447 4.80584C15.7447 5.51767 15.7527 5.62626 15.8211 5.76299C15.9337 5.9882 16.1589 6.12494 16.4203 6.12494C16.7541 6.12494 16.9673 5.98016 17.0759 5.68256C17.1442 5.48952 17.1523 4.19858 17.0879 3.9613C17.0316 3.76022 16.8305 3.55914 16.6294 3.50283C16.4485 3.45457 16.3922 3.45055 16.2394 3.49881Z" fill="black"/>
<path d="M13.3237 11.0233C13.1628 11.0675 12.9657 11.3048 12.9296 11.4898C12.9094 11.6024 13.0784 12.1494 13.8746 14.5382C14.7875 17.281 14.8519 17.4579 14.9806 17.5705C15.057 17.6389 15.1817 17.7032 15.2581 17.7153C15.5074 17.7636 15.6361 17.7032 15.9739 17.3815L16.2916 17.0799L17.0437 17.8239C18.1898 18.962 18.0772 18.97 19.4567 17.6027C19.9956 17.0678 20.4701 16.5611 20.5144 16.4807C20.6069 16.2997 20.6109 16.1268 20.5264 15.9538C20.4902 15.8814 20.1363 15.4954 19.7342 15.0932L19.0062 14.3613L19.2958 14.0637C19.6899 13.6534 19.7422 13.4926 19.5813 13.1628C19.525 13.0462 19.4486 12.9617 19.3481 12.9135C19.139 12.8089 13.6253 10.9791 13.5328 10.9831C13.4886 10.9831 13.3961 11.0032 13.3237 11.0233Z" fill="black"/>
</svg>
