<svg width="495" height="52" viewBox="0 0 495 52" fill="none" xmlns="http://www.w3.org/2000/svg">
<path d="M34.14 41.97C34.0467 42.67 33.8367 43.4633 33.51 44.35C33.1833 45.19 32.7633 46.0067 32.25 46.8C31.7833 47.5933 31.2467 48.3167 30.64 48.97C30.08 49.6233 29.52 50.1133 28.96 50.44C27 50.58 25.2733 50.6967 23.78 50.79C22.2867 50.8833 20.8633 50.9533 19.51 51C18.2033 51.0467 16.85 51.07 15.45 51.07C14.05 51.1167 12.4633 51.14 10.69 51.14H3.62C3.15333 51.14 2.75667 51.07 2.43 50.93C2.10333 50.79 1.75333 50.72 1.38 50.72H1.03L0.12 13.48L0.19 0.459996H26.72C26.72 0.459996 26.79 0.553329 26.93 0.739996C27.1167 0.879997 27.3267 1.09 27.56 1.37C27.7933 1.60333 28.0267 1.86 28.26 2.14C28.54 2.37333 28.7733 2.58333 28.96 2.77C29.0067 2.81667 29.1233 2.95666 29.31 3.19C29.5433 3.42333 29.7767 3.70333 30.01 4.03C30.2433 4.31 30.4767 4.61333 30.71 4.94C30.9433 5.22 31.13 5.43 31.27 5.57C31.83 6.31666 32.2733 7.32 32.6 8.58C32.9733 9.84 33.2533 11.24 33.44 12.78C33.6267 14.2733 33.7433 15.86 33.79 17.54C33.8367 19.1733 33.86 20.76 33.86 22.3V26.64C33.86 27.2933 33.86 27.9 33.86 28.46C33.86 29.02 33.9067 29.5333 34 30V32.45V36.02C34 37.28 34 38.4933 34 39.66C34.0467 40.78 34.0933 41.55 34.14 41.97ZM19.37 31.75V27.41C19.37 25.45 19.2767 23.2567 19.09 20.83C18.9033 18.4033 18.6933 15.86 18.46 13.2L12.23 12.99V17.68C12.23 19.36 12.2533 21.2267 12.3 23.28C12.3467 25.3333 12.4167 27.4333 12.51 29.58C12.6033 31.7267 12.6733 33.8267 12.72 35.88C12.8133 37.9333 12.9067 39.8 13 41.48C13.56 41.34 14.1433 41.2 14.75 41.06C15.4033 40.8733 16.01 40.64 16.57 40.36C17.1767 40.0333 17.7133 39.6367 18.18 39.17C18.6933 38.7033 19.0667 38.12 19.3 37.42V36.3C19.3 35.74 19.3 35.18 19.3 34.62C19.3467 34.0133 19.37 33.43 19.37 32.87V31.75ZM40.5505 5.01V3.89C40.5505 3.37667 40.5505 2.91 40.5505 2.49C40.5971 2.02333 40.6905 1.39333 40.8305 0.599998H45.3105H49.8605C50.3271 0.599998 51.2371 0.623331 52.5905 0.669997C53.9905 0.669997 55.4605 0.69333 57.0005 0.739996C58.5871 0.786665 60.0805 0.833332 61.4805 0.879999C62.8805 0.879999 63.8371 0.879999 64.3505 0.879999C64.3505 0.879999 64.4438 0.879999 64.6305 0.879999C64.8171 0.833332 65.0271 0.809999 65.2605 0.809999C65.6338 0.809999 65.8905 0.926666 66.0305 1.16C66.1705 2.18666 66.2405 3.28333 66.2405 4.45C66.2871 5.61666 66.3105 6.76 66.3105 7.88V9.91H55.6705C55.4838 9.91 55.2971 10.05 55.1105 10.33C54.9238 10.61 54.8305 10.7967 54.8305 10.89V19.5C54.8305 20.0133 54.9938 20.3633 55.3205 20.55C55.6938 20.69 56.1371 20.76 56.6505 20.76L66.6605 21.32L66.9405 21.53L67.2905 29.37V30V30.56C67.2905 30.84 67.1738 30.98 66.9405 30.98H56.0905L54.8305 32.03V37.42L66.9405 37.91L67.5005 38.47C67.5005 38.47 67.5238 38.8433 67.5705 39.59C67.6171 40.29 67.6405 41.1533 67.6405 42.18C67.6871 43.2067 67.7338 44.28 67.7805 45.4C67.8271 46.52 67.8505 47.4533 67.8505 48.2V49.88V50.86L67.5005 51.07H44.2605L42.3005 50.86L41.2505 23.91C41.0171 20.69 40.8305 17.54 40.6905 14.46C40.5971 11.38 40.5505 8.23 40.5505 5.01ZM108.38 50.65L96.1299 50.86C96.1299 49.74 96.1066 48.2933 96.0599 46.52C96.0599 44.7467 96.0599 42.9967 96.0599 41.27V36.65V35.04C96.0599 34.4333 96.0833 34.1067 96.1299 34.06V32.73L95.8499 31.12L89.1999 23.56C89.2466 25.8 89.2933 28.25 89.3399 30.91C89.4333 33.5233 89.5033 36.1133 89.5499 38.68C89.6433 41.2 89.7133 43.5567 89.7599 45.75C89.8533 47.8967 89.9466 49.5767 90.0399 50.79L75.6199 51L74.0799 7.11L73.9399 6.83C73.9399 6.83 73.9399 6.80666 73.9399 6.76C73.9866 6.71333 74.0333 6.66667 74.0799 6.62L74.0099 1.72L78.9099 1.3L79.1199 1.09C79.2133 1.04333 79.4933 1.02 79.9599 1.02H80.6599H81.9199H84.7899L85.9799 1.79C86.9133 2.44333 87.7766 3.28333 88.5699 4.31C89.4099 5.29 90.2266 6.17667 91.0199 6.97L95.2899 11.73C95.2899 11.2633 95.2666 10.61 95.2199 9.77C95.2199 8.88333 95.2199 7.92666 95.2199 6.9V3.68V0.739996C95.6866 0.786665 96.0833 0.833332 96.4099 0.879999C96.7833 0.879999 97.2266 0.879999 97.7399 0.879999H106.42L107.12 1.86L107.47 6.83L107.61 7.25V7.88C107.61 8.39333 107.587 9.11666 107.54 10.05C107.493 10.9367 107.54 11.66 107.68 12.22C107.773 14.74 107.867 17.68 107.96 21.04C108.053 24.3533 108.123 27.7833 108.17 31.33C108.263 34.83 108.31 38.2833 108.31 41.69C108.357 45.05 108.38 48.0367 108.38 50.65ZM114.917 3.82V3.26C114.917 2.88666 114.917 2.53666 114.917 2.21C114.964 1.88333 114.987 1.55666 114.987 1.23V0.599998C115.361 0.599998 116.061 0.599998 117.087 0.599998C118.161 0.553332 119.281 0.506664 120.447 0.459996C121.661 0.41333 122.781 0.389997 123.807 0.389997C124.881 0.34333 125.604 0.319997 125.977 0.319997H126.607L141.027 0.879999L141.307 1.16V8.23C141.307 8.27667 141.261 8.44 141.167 8.72C141.121 8.95333 141.074 9.11666 141.027 9.21C140.841 9.25667 140.724 9.32666 140.677 9.42C140.631 9.51333 140.607 9.56 140.607 9.56L134.587 9.42C134.634 11.6133 134.657 14.0167 134.657 16.63C134.704 19.2433 134.727 21.7633 134.727 24.19C134.774 26.6167 134.821 28.81 134.867 30.77C134.914 32.6833 134.984 34.0833 135.077 34.97V36.09V37.56C135.077 38.12 135.077 38.61 135.077 39.03C135.124 39.4033 135.171 39.7067 135.217 39.94C135.311 40.0333 135.404 40.1733 135.497 40.36C135.591 40.5467 135.707 40.64 135.847 40.64L140.817 40.43C140.817 40.43 140.841 40.6633 140.887 41.13C140.934 41.5967 140.981 42.2033 141.027 42.95C141.121 43.65 141.191 44.4433 141.237 45.33C141.331 46.2167 141.377 47.0567 141.377 47.85V49.95C141.377 50.5567 141.191 50.9533 140.817 51.14L136.687 51H129.687H127.657H115.617V40.64H121.497L121.147 10.19C120.494 10.19 119.817 10.2367 119.117 10.33C118.464 10.3767 117.857 10.4233 117.297 10.47C116.737 10.5167 116.271 10.5167 115.897 10.47C115.524 10.4233 115.337 10.2833 115.337 10.05L114.917 3.82ZM154.9 50.16C154.62 50.0667 154.13 49.81 153.43 49.39C152.777 48.9233 152.123 48.41 151.47 47.85C150.817 47.29 150.233 46.73 149.72 46.17C149.207 45.5633 148.95 45.05 148.95 44.63V33.64C148.95 33.64 149.09 33.6167 149.37 33.57C149.65 33.5233 150 33.4767 150.42 33.43C150.84 33.3367 151.26 33.2667 151.68 33.22C152.147 33.1267 152.52 33.08 152.8 33.08H152.94C153.453 33.08 153.733 33.1733 153.78 33.36C153.873 33.5467 153.92 33.85 153.92 34.27V36.79L154.55 37.91H160.85C161.177 37.91 161.34 37.7467 161.34 37.42C161.34 37.0467 161.34 36.6967 161.34 36.37V35.81C161.34 34.6433 160.757 33.4533 159.59 32.24C158.423 31.0267 157.093 29.8367 155.6 28.67C154.107 27.5033 152.637 26.3833 151.19 25.31C149.79 24.19 148.833 23.14 148.32 22.16C148.273 19.64 148.157 17.2833 147.97 15.09C147.83 12.85 147.76 10.5867 147.76 8.3C147.76 7.41333 147.807 6.71333 147.9 6.2C147.993 5.68666 148.157 5.24333 148.39 4.87C148.623 4.45 148.903 4.03 149.23 3.61C149.603 3.19 150.047 2.63 150.56 1.93C155.227 1.23 159.147 0.856666 162.32 0.809999C165.493 0.763331 168.293 0.739996 170.72 0.739996H173.1L175.48 1.09C175.62 1.13666 175.737 1.3 175.83 1.58C175.97 1.86 176.087 2.16333 176.18 2.49C176.32 2.81666 176.413 3.14333 176.46 3.47C176.553 3.79666 176.6 4.03 176.6 4.17C176.6 4.59 176.6 5.33666 176.6 6.41C176.647 7.48333 176.67 8.72 176.67 10.12C176.67 11.4267 176.717 12.71 176.81 13.97C176.95 15.23 177.02 16.1867 177.02 16.84C176.647 16.84 176.087 16.84 175.34 16.84C174.64 16.7933 173.893 16.77 173.1 16.77C172.307 16.77 171.583 16.77 170.93 16.77C170.323 16.7233 169.903 16.7 169.67 16.7C168.83 16.7 168.27 16.4433 167.99 15.93C167.757 15.37 167.547 14.7867 167.36 14.18C167.22 13.5267 166.987 12.9433 166.66 12.43C166.38 11.87 165.797 11.59 164.91 11.59C163.51 11.59 162.46 11.8 161.76 12.22C161.107 12.64 160.78 13.6667 160.78 15.3C160.78 15.6733 160.78 16.0933 160.78 16.56C160.827 16.98 160.85 17.19 160.85 17.19C160.85 17.19 161.107 17.3533 161.62 17.68C162.18 18.0067 162.6 18.2167 162.88 18.31C163.393 18.59 163.977 19.0567 164.63 19.71C165.33 20.3633 166.03 21.0167 166.73 21.67C167.477 22.3233 168.2 22.9067 168.9 23.42C169.6 23.9333 170.253 24.19 170.86 24.19C170.86 24.61 171.187 25.0533 171.84 25.52C172.493 25.9867 173.193 26.4767 173.94 26.99C174.733 27.5033 175.457 28.04 176.11 28.6C176.763 29.1133 177.09 29.6033 177.09 30.07V46.52C177.09 46.94 176.973 47.36 176.74 47.78C176.507 48.1533 176.227 48.5267 175.9 48.9C175.573 49.2267 175.247 49.5533 174.92 49.88C174.64 50.2067 174.407 50.4867 174.22 50.72H173.1C172.447 50.72 171.84 50.7667 171.28 50.86C170.72 50.9067 170.16 50.93 169.6 50.93H168.48H164.63C163.09 50.93 161.55 50.8833 160.01 50.79C158.47 50.65 156.767 50.44 154.9 50.16ZM211.22 50.16C210.94 50.0667 210.45 49.81 209.75 49.39C209.096 48.9233 208.443 48.41 207.79 47.85C207.136 47.29 206.553 46.73 206.04 46.17C205.526 45.5633 205.27 45.05 205.27 44.63V33.64C205.27 33.64 205.41 33.6167 205.69 33.57C205.97 33.5233 206.32 33.4767 206.74 33.43C207.16 33.3367 207.58 33.2667 208 33.22C208.466 33.1267 208.84 33.08 209.12 33.08H209.26C209.773 33.08 210.053 33.1733 210.1 33.36C210.193 33.5467 210.24 33.85 210.24 34.27V36.79L210.87 37.91H217.17C217.496 37.91 217.66 37.7467 217.66 37.42C217.66 37.0467 217.66 36.6967 217.66 36.37V35.81C217.66 34.6433 217.076 33.4533 215.91 32.24C214.743 31.0267 213.413 29.8367 211.92 28.67C210.426 27.5033 208.956 26.3833 207.51 25.31C206.11 24.19 205.153 23.14 204.64 22.16C204.593 19.64 204.476 17.2833 204.29 15.09C204.15 12.85 204.08 10.5867 204.08 8.3C204.08 7.41333 204.126 6.71333 204.22 6.2C204.313 5.68666 204.476 5.24333 204.71 4.87C204.943 4.45 205.223 4.03 205.55 3.61C205.923 3.19 206.366 2.63 206.88 1.93C211.546 1.23 215.466 0.856666 218.64 0.809999C221.813 0.763331 224.613 0.739996 227.04 0.739996H229.42L231.8 1.09C231.94 1.13666 232.056 1.3 232.15 1.58C232.29 1.86 232.406 2.16333 232.5 2.49C232.64 2.81666 232.733 3.14333 232.78 3.47C232.873 3.79666 232.92 4.03 232.92 4.17C232.92 4.59 232.92 5.33666 232.92 6.41C232.966 7.48333 232.99 8.72 232.99 10.12C232.99 11.4267 233.036 12.71 233.13 13.97C233.27 15.23 233.34 16.1867 233.34 16.84C232.966 16.84 232.406 16.84 231.66 16.84C230.96 16.7933 230.213 16.77 229.42 16.77C228.626 16.77 227.903 16.77 227.25 16.77C226.643 16.7233 226.223 16.7 225.99 16.7C225.15 16.7 224.59 16.4433 224.31 15.93C224.076 15.37 223.866 14.7867 223.68 14.18C223.54 13.5267 223.306 12.9433 222.98 12.43C222.7 11.87 222.116 11.59 221.23 11.59C219.83 11.59 218.78 11.8 218.08 12.22C217.426 12.64 217.1 13.6667 217.1 15.3C217.1 15.6733 217.1 16.0933 217.1 16.56C217.146 16.98 217.17 17.19 217.17 17.19C217.17 17.19 217.426 17.3533 217.94 17.68C218.5 18.0067 218.92 18.2167 219.2 18.31C219.713 18.59 220.296 19.0567 220.95 19.71C221.65 20.3633 222.35 21.0167 223.05 21.67C223.796 22.3233 224.52 22.9067 225.22 23.42C225.92 23.9333 226.573 24.19 227.18 24.19C227.18 24.61 227.506 25.0533 228.16 25.52C228.813 25.9867 229.513 26.4767 230.26 26.99C231.053 27.5033 231.776 28.04 232.43 28.6C233.083 29.1133 233.41 29.6033 233.41 30.07V46.52C233.41 46.94 233.293 47.36 233.06 47.78C232.826 48.1533 232.546 48.5267 232.22 48.9C231.893 49.2267 231.566 49.5533 231.24 49.88C230.96 50.2067 230.726 50.4867 230.54 50.72H229.42C228.766 50.72 228.16 50.7667 227.6 50.86C227.04 50.9067 226.48 50.93 225.92 50.93H224.8H220.95C219.41 50.93 217.87 50.8833 216.33 50.79C214.79 50.65 213.086 50.44 211.22 50.16ZM262.542 50.79L261.772 31.05L255.122 31.61L255.402 50.58H241.122L240.842 50.09C240.842 50.09 240.818 49.6233 240.772 48.69C240.772 47.7567 240.772 46.5667 240.772 45.12V35.39C240.772 33.43 240.748 31.5633 240.702 29.79C240.655 28.0167 240.632 26.4767 240.632 25.17C240.632 21.0633 240.492 17.0267 240.212 13.06C239.978 9.04666 239.862 4.98667 239.862 0.879999C242.195 0.879999 244.668 0.903332 247.282 0.949998C249.942 0.949998 252.485 0.973331 254.912 1.02C254.912 2.09333 254.912 3.51666 254.912 5.29C254.958 7.06333 254.982 8.81333 254.982 10.54C254.982 12.22 254.982 13.69 254.982 14.95C255.028 16.21 255.052 16.84 255.052 16.84V22.37H261.002L261.212 20.13L260.932 1.02C260.978 1.06666 261.375 1.09 262.122 1.09H263.452H272.692V11.1V14.11C272.692 15.4167 272.715 16.98 272.762 18.8C272.808 20.62 272.832 22.5333 272.832 24.54C272.878 26.5 272.925 28.4833 272.972 30.49C273.018 32.45 273.042 34.27 273.042 35.95V38.26V39.31C273.042 39.7767 273.065 40.0333 273.112 40.08V50.79L272.762 51C272.715 51 272.528 51 272.202 51C271.922 51.0467 271.688 51.07 271.502 51.07L269.682 51H269.332C268.818 51 268.165 51 267.372 51C266.625 50.9533 265.878 50.93 265.132 50.93C264.432 50.8833 263.825 50.86 263.312 50.86C262.798 50.8133 262.542 50.79 262.542 50.79ZM289.132 15.51L288.782 13.97C288.642 13.83 288.525 13.76 288.432 13.76H280.452L280.172 13.41C280.079 13.41 279.985 13.1767 279.892 12.71C279.799 12.1967 279.752 11.8 279.752 11.52C279.612 9.79333 279.519 8.34667 279.472 7.18C279.472 5.96667 279.472 4.61333 279.472 3.12V1.09C280.125 1.09 281.152 1.09 282.552 1.09C283.999 1.04333 285.515 1.02 287.102 1.02C288.689 0.973331 290.182 0.949998 291.582 0.949998C292.982 0.903332 293.985 0.879999 294.592 0.879999H310.482L310.832 1.09L311.252 9.84V11.38C311.252 11.52 311.112 11.73 310.832 12.01C310.739 11.9633 310.412 11.94 309.852 11.94H308.872C307.845 11.94 306.865 12.1033 305.932 12.43C305.045 12.71 304.485 13.2233 304.252 13.97V14.32C304.252 14.46 304.229 14.6233 304.182 14.81C304.182 14.95 304.182 15.1367 304.182 15.37V16.14C304.182 16.3733 304.182 16.5833 304.182 16.77C304.229 16.9567 304.252 17.1433 304.252 17.33V17.54C304.532 23.1867 304.765 28.7633 304.952 34.27C305.139 39.7767 305.232 45.3533 305.232 51H291.302C290.789 44.98 290.369 39.1 290.042 33.36C289.762 27.5733 289.459 21.6233 289.132 15.51ZM334.915 50.79C334.915 50.65 334.868 50.3467 334.775 49.88C334.728 49.4133 334.658 48.9467 334.565 48.48C334.518 47.9667 334.448 47.4767 334.355 47.01C334.308 46.5433 334.285 46.24 334.285 46.1C334.145 45.7267 334.005 45.26 333.865 44.7C333.725 44.14 333.655 43.86 333.655 43.86L332.955 43.65H326.585C326.445 43.51 326.258 43.44 326.025 43.44C325.838 43.44 325.605 43.58 325.325 43.86C325.325 44.0467 325.301 44.2567 325.255 44.49C325.255 44.7233 325.255 44.8867 325.255 44.98L324.415 49.88L323.785 50.3H313.145C312.865 50.3 312.725 50.1133 312.725 49.74L312.795 49.46L320.845 2.35C320.938 2.30333 320.985 2.02333 320.985 1.51C320.985 1.13666 321.265 0.949998 321.825 0.949998H336.315C336.595 0.949998 336.875 1.25333 337.155 1.86C337.435 2.42 337.691 3.07333 337.925 3.82C338.205 4.52 338.415 5.19666 338.555 5.85C338.741 6.50333 338.835 6.9 338.835 7.04H339.185L348.495 47.22C348.308 47.7333 348.378 48.2933 348.705 48.9C349.031 49.5067 349.195 50.0667 349.195 50.58C349.195 50.8133 349.101 50.9533 348.915 51L346.395 51.07L342.965 51C342.731 51 342.218 51 341.425 51C340.631 50.9533 339.791 50.93 338.905 50.93C338.065 50.8833 337.248 50.86 336.455 50.86C335.661 50.8133 335.148 50.79 334.915 50.79ZM329.525 20.97L326.935 33.43C327.121 33.4767 327.401 33.5467 327.775 33.64C328.195 33.6867 328.475 33.71 328.615 33.71C328.801 33.71 329.058 33.7333 329.385 33.78C329.711 33.78 330.131 33.78 330.645 33.78C331.111 33.78 331.485 33.8033 331.765 33.85C332.045 33.85 332.278 33.85 332.465 33.85V32.94L331.345 26.22C331.251 26.1733 331.088 25.87 330.855 25.31C330.668 24.75 330.481 24.1667 330.295 23.56C330.108 22.9067 329.921 22.3233 329.735 21.81C329.595 21.25 329.525 20.97 329.525 20.97ZM366.868 20.13L369.948 1.02H381.498L381.778 1.23L372.888 50.51C372.888 50.6967 372.771 50.79 372.538 50.79C372.445 50.8367 372.165 50.9067 371.698 51C371.278 51.0467 371.045 51.07 370.998 51.07H358.468L356.298 40.78C356.018 40.7333 355.878 40.57 355.878 40.29V40.08L353.358 28.46V27.48L349.788 11.94C349.788 11.94 349.718 11.7067 349.578 11.24C349.485 10.7267 349.345 10.19 349.158 9.63C349.018 9.02333 348.878 8.44 348.738 7.88C348.645 7.32 348.598 6.97 348.598 6.83C348.551 6.55 348.458 6.13 348.318 5.57C348.225 5.01 348.178 4.68333 348.178 4.59C348.178 4.54333 348.085 4.33333 347.898 3.96C347.711 3.58667 347.618 3.35333 347.618 3.26C347.618 3.02666 347.641 2.65333 347.688 2.14C347.735 1.62666 347.805 1.32333 347.898 1.23L348.178 1.02L359.448 0.809999C360.055 0.809999 360.358 0.949999 360.358 1.23C360.405 1.51 360.498 1.74333 360.638 1.93C360.685 1.97666 360.731 2.02333 360.778 2.07C360.825 2.11666 360.895 2.32666 360.988 2.7C361.128 3.02666 361.268 3.58667 361.408 4.38C361.595 5.17333 361.828 6.34 362.108 7.88C362.435 9.42 362.831 11.4267 363.298 13.9C363.765 16.3267 364.325 19.36 364.978 23C365.025 23.0933 365.071 23.2567 365.118 23.49C365.165 23.6767 365.211 23.8867 365.258 24.12C365.305 24.3533 365.351 24.5633 365.398 24.75C365.491 24.9367 365.585 25.03 365.678 25.03L366.868 20.13ZM388.117 3.82V3.26C388.117 2.88666 388.117 2.53666 388.117 2.21C388.164 1.88333 388.187 1.55666 388.187 1.23V0.599998C388.56 0.599998 389.26 0.599998 390.287 0.599998C391.36 0.553332 392.48 0.506664 393.647 0.459996C394.86 0.41333 395.98 0.389997 397.007 0.389997C398.08 0.34333 398.804 0.319997 399.177 0.319997H399.807L414.227 0.879999L414.507 1.16V8.23C414.507 8.27667 414.46 8.44 414.367 8.72C414.32 8.95333 414.274 9.11666 414.227 9.21C414.04 9.25667 413.924 9.32666 413.877 9.42C413.83 9.51333 413.807 9.56 413.807 9.56L407.787 9.42C407.834 11.6133 407.857 14.0167 407.857 16.63C407.904 19.2433 407.927 21.7633 407.927 24.19C407.974 26.6167 408.02 28.81 408.067 30.77C408.114 32.6833 408.184 34.0833 408.277 34.97V36.09V37.56C408.277 38.12 408.277 38.61 408.277 39.03C408.324 39.4033 408.37 39.7067 408.417 39.94C408.51 40.0333 408.604 40.1733 408.697 40.36C408.79 40.5467 408.907 40.64 409.047 40.64L414.017 40.43C414.017 40.43 414.04 40.6633 414.087 41.13C414.134 41.5967 414.18 42.2033 414.227 42.95C414.32 43.65 414.39 44.4433 414.437 45.33C414.53 46.2167 414.577 47.0567 414.577 47.85V49.95C414.577 50.5567 414.39 50.9533 414.017 51.14L409.887 51H402.887H400.857H388.817V40.64H394.697L394.347 10.19C393.694 10.19 393.017 10.2367 392.317 10.33C391.664 10.3767 391.057 10.4233 390.497 10.47C389.937 10.5167 389.47 10.5167 389.097 10.47C388.724 10.4233 388.537 10.2833 388.537 10.05L388.117 3.82ZM452.458 9.63C452.318 10.1433 452.224 10.9833 452.178 12.15C452.178 13.3167 452.178 14.5767 452.178 15.93V18.45L438.668 18.1V17.75C438.668 17.19 438.598 16.7933 438.458 16.56C438.364 16.28 438.318 15.86 438.318 15.3V14.18C438.224 13.6667 438.038 13.0833 437.758 12.43C437.524 11.73 437.081 11.38 436.428 11.38L434.818 11.31L433.768 12.43C433.674 15.79 433.674 19.36 433.768 23.14C433.861 26.92 433.908 30.49 433.908 33.85V36.72C433.908 37 433.978 37.3733 434.118 37.84C434.258 38.26 434.351 38.47 434.398 38.47H438.388C438.528 37.3967 438.621 36.3 438.668 35.18C438.714 34.06 438.761 32.9867 438.808 31.96H452.948V36.16C452.948 38.1667 452.854 40.0567 452.668 41.83C452.528 43.6033 452.061 44.98 451.268 45.96C451.128 46.1 450.941 46.3333 450.708 46.66C450.521 46.94 450.311 47.2433 450.078 47.57C449.891 47.85 449.704 48.1067 449.518 48.34C449.378 48.5733 449.284 48.7133 449.238 48.76C449.051 48.9467 448.818 49.18 448.538 49.46C448.258 49.6933 447.978 49.95 447.698 50.23C447.418 50.4633 447.184 50.6733 446.998 50.86C446.811 51 446.718 51.07 446.718 51.07H428.728C428.168 51.07 427.491 50.8367 426.698 50.37C425.951 49.9033 425.228 49.3433 424.528 48.69C423.874 48.0367 423.314 47.36 422.848 46.66C422.381 45.96 422.148 45.3767 422.148 44.91C422.054 44.8633 422.008 44.63 422.008 44.21L421.098 38.05V31.12V23.91C421.098 21.53 421.098 19.22 421.098 16.98C421.144 14.74 421.214 12.7567 421.308 11.03C421.401 9.25666 421.518 7.81 421.658 6.69C421.844 5.52333 422.054 4.8 422.288 4.52L426.558 0.879999H426.978C427.351 0.879999 427.724 0.809998 428.098 0.669997C428.471 0.529996 428.891 0.459996 429.358 0.459996H430.618C432.298 0.459996 433.744 0.48333 434.958 0.529999C436.171 0.529999 437.314 0.553332 438.388 0.599998C439.508 0.599998 440.651 0.646664 441.818 0.739996C443.031 0.833331 444.501 0.949998 446.228 1.09L447.208 1.16C447.768 1.48666 448.351 1.97666 448.958 2.63C449.564 3.28333 450.101 4.00666 450.568 4.8C451.081 5.59333 451.501 6.43333 451.828 7.32C452.154 8.16 452.364 8.93 452.458 9.63ZM480.709 50.79C480.709 50.65 480.662 50.3467 480.569 49.88C480.522 49.4133 480.452 48.9467 480.359 48.48C480.312 47.9667 480.242 47.4767 480.149 47.01C480.102 46.5433 480.079 46.24 480.079 46.1C479.939 45.7267 479.799 45.26 479.659 44.7C479.519 44.14 479.449 43.86 479.449 43.86L478.749 43.65H472.379C472.239 43.51 472.052 43.44 471.819 43.44C471.632 43.44 471.399 43.58 471.119 43.86C471.119 44.0467 471.096 44.2567 471.049 44.49C471.049 44.7233 471.049 44.8867 471.049 44.98L470.209 49.88L469.579 50.3H458.939C458.659 50.3 458.519 50.1133 458.519 49.74L458.589 49.46L466.639 2.35C466.732 2.30333 466.779 2.02333 466.779 1.51C466.779 1.13666 467.059 0.949998 467.619 0.949998H482.109C482.389 0.949998 482.669 1.25333 482.949 1.86C483.229 2.42 483.486 3.07333 483.719 3.82C483.999 4.52 484.209 5.19666 484.349 5.85C484.536 6.50333 484.629 6.9 484.629 7.04H484.979L494.289 47.22C494.102 47.7333 494.172 48.2933 494.499 48.9C494.826 49.5067 494.989 50.0667 494.989 50.58C494.989 50.8133 494.896 50.9533 494.709 51L492.189 51.07L488.759 51C488.526 51 488.012 51 487.219 51C486.426 50.9533 485.586 50.93 484.699 50.93C483.859 50.8833 483.042 50.86 482.249 50.86C481.456 50.8133 480.942 50.79 480.709 50.79ZM475.319 20.97L472.729 33.43C472.916 33.4767 473.196 33.5467 473.569 33.64C473.989 33.6867 474.269 33.71 474.409 33.71C474.596 33.71 474.852 33.7333 475.179 33.78C475.506 33.78 475.926 33.78 476.439 33.78C476.906 33.78 477.279 33.8033 477.559 33.85C477.839 33.85 478.072 33.85 478.259 33.85V32.94L477.139 26.22C477.046 26.1733 476.882 25.87 476.649 25.31C476.462 24.75 476.276 24.1667 476.089 23.56C475.902 22.9067 475.716 22.3233 475.529 21.81C475.389 21.25 475.319 20.97 475.319 20.97Z" fill="black"/>
</svg>
