<svg width="261" height="34" viewBox="0 0 261 34" fill="none" xmlns="http://www.w3.org/2000/svg">
<path d="M5.22 1.005L5.67 0.869998C5.67 0.869998 6.03 0.869998 6.75 0.869998C7.47 0.839998 8.355 0.809999 9.405 0.779999C10.485 0.749999 11.595 0.735 12.735 0.735C13.905 0.704998 14.925 0.689998 15.795 0.689998H17.28C17.31 0.689998 17.385 0.704998 17.505 0.735C17.625 0.764999 17.82 0.869999 18.09 1.05C18.39 1.2 18.81 1.44 19.35 1.77C19.89 2.1 20.61 2.565 21.51 3.165C21.51 3.165 21.51 3.36 21.51 3.75C21.54 4.14 21.555 4.56 21.555 5.01V6.99V7.755C21.555 8.115 21.54 8.505 21.51 8.925C21.51 9.345 21.51 9.75 21.51 10.14V10.86V11.94H15.075V9.465C15.045 9.195 14.79 9.015 14.31 8.925C13.83 8.805 13.44 8.745 13.14 8.745C12.42 8.745 11.835 8.91 11.385 9.24C10.965 9.54 10.71 9.915 10.62 10.365V10.77V12.165C10.62 12.465 10.605 12.735 10.575 12.975C10.545 13.215 10.515 13.44 10.485 13.65V13.695L10.395 17.97C10.245 18.51 10.155 19.065 10.125 19.635C10.125 20.175 10.14 20.73 10.17 21.3C10.2 21.84 10.245 22.395 10.305 22.965C10.365 23.535 10.395 24.105 10.395 24.675V25.08C10.395 25.23 10.41 25.41 10.44 25.62C10.47 25.8 10.485 25.995 10.485 26.205V26.565C10.575 26.655 10.74 26.73 10.98 26.79C11.22 26.85 11.49 26.895 11.79 26.925C12.09 26.925 12.375 26.94 12.645 26.97C12.945 26.97 13.17 26.97 13.32 26.97L15.075 26.43L15.12 26.16C15.12 25.98 15.15 25.605 15.21 25.035C15.3 24.435 15.33 23.7 15.3 22.83C15.24 22.65 15.195 22.515 15.165 22.425C15.135 22.305 15.06 22.215 14.94 22.155C14.85 22.065 14.67 21.99 14.4 21.93C14.13 21.87 13.725 21.81 13.185 21.75C13.125 21.24 13.065 20.73 13.005 20.22C12.975 19.68 12.96 19.14 12.96 18.6C12.96 18.09 12.975 17.58 13.005 17.07C13.065 16.53 13.125 15.99 13.185 15.45H16.02C16.02 15.48 16.035 15.48 16.065 15.45C16.095 15.39 16.14 15.36 16.2 15.36C16.2 15.33 16.23 15.315 16.29 15.315C16.29 15.315 16.29 15.33 16.29 15.36C16.32 15.36 16.35 15.36 16.38 15.36C17.82 15.45 18.9 15.555 19.62 15.675C20.34 15.795 20.865 15.96 21.195 16.17C21.555 16.38 21.795 16.635 21.915 16.935C22.035 17.205 22.23 17.55 22.5 17.97V18.915C22.5 19.665 22.485 20.34 22.455 20.94C22.425 21.51 22.395 22.08 22.365 22.65C22.365 23.19 22.35 23.76 22.32 24.36C22.29 24.93 22.275 25.59 22.275 26.34V27.24C22.275 27.72 22.215 28.365 22.095 29.175C21.975 29.985 21.66 31.155 21.15 32.685C20.64 32.925 20.1 33.06 19.53 33.09H12.78H9.81H8.28C7.68 33.09 7.14 33.075 6.66 33.045C6.18 33.045 5.64 33.015 5.04 32.955C4.86 32.925 4.77 32.835 4.77 32.685C4.77 32.655 4.59 32.535 4.23 32.325C3.9 32.085 3.51 31.755 3.06 31.335C2.61 30.915 2.16 30.39 1.71 29.76C1.26 29.1 0.93 28.32 0.72 27.42L0.99 5.505L1.17 3.93H1.215L0.99 3.615L5.22 1.005ZM26.3981 3.435V2.715C26.3981 2.385 26.3981 2.085 26.3981 1.815C26.4281 1.515 26.4881 1.11 26.5781 0.599999H29.4581H32.3831C32.6831 0.599999 33.2681 0.614999 34.1381 0.644998C35.0381 0.644998 35.9831 0.659998 36.9731 0.689998C37.9931 0.719999 38.9531 0.749999 39.8531 0.779999C40.7531 0.779999 41.3681 0.779999 41.6981 0.779999C41.6981 0.779999 41.7581 0.779999 41.8781 0.779999C41.9981 0.749999 42.1331 0.735 42.2831 0.735C42.5231 0.735 42.6881 0.81 42.7781 0.959999C42.8681 1.62 42.9131 2.325 42.9131 3.075C42.9431 3.825 42.9581 4.56 42.9581 5.28V6.585H36.1181C35.9981 6.585 35.8781 6.675 35.7581 6.855C35.6381 7.035 35.5781 7.155 35.5781 7.215V12.75C35.5781 13.08 35.6831 13.305 35.8931 13.425C36.1331 13.515 36.4181 13.56 36.7481 13.56L43.1831 13.92L43.3631 14.055L43.5881 19.095V19.5V19.86C43.5881 20.04 43.5131 20.13 43.3631 20.13H36.3881L35.5781 20.805V24.27L43.3631 24.585L43.7231 24.945C43.7231 24.945 43.7381 25.185 43.7681 25.665C43.7981 26.115 43.8131 26.67 43.8131 27.33C43.8431 27.99 43.8731 28.68 43.9031 29.4C43.9331 30.12 43.9481 30.72 43.9481 31.2V32.28V32.91L43.7231 33.045H28.7831L27.5231 32.91L26.8481 15.585C26.6981 13.515 26.5781 11.49 26.4881 9.51C26.4281 7.53 26.3981 5.505 26.3981 3.435ZM53.5402 10.185L53.3152 9.195C53.2252 9.105 53.1502 9.06 53.0902 9.06H47.9602L47.7802 8.835C47.7202 8.835 47.6602 8.685 47.6002 8.385C47.5402 8.055 47.5102 7.8 47.5102 7.62C47.4202 6.51 47.3602 5.58 47.3302 4.83C47.3302 4.05 47.3302 3.18 47.3302 2.22V0.914997C47.7502 0.914997 48.4102 0.914997 49.3102 0.914997C50.2402 0.884998 51.2152 0.869998 52.2352 0.869998C53.2552 0.839998 54.2152 0.824998 55.1152 0.824998C56.0152 0.794999 56.6602 0.779999 57.0502 0.779999H67.2652L67.4902 0.914997L67.7602 6.54V7.53C67.7602 7.62 67.6702 7.755 67.4902 7.935C67.4302 7.905 67.2202 7.89 66.8602 7.89H66.2302C65.5702 7.89 64.9402 7.995 64.3402 8.205C63.7702 8.385 63.4102 8.715 63.2602 9.195V9.42C63.2602 9.51 63.2452 9.615 63.2152 9.735C63.2152 9.825 63.2152 9.945 63.2152 10.095V10.59C63.2152 10.74 63.2152 10.875 63.2152 10.995C63.2452 11.115 63.2602 11.235 63.2602 11.355V11.49C63.4402 15.12 63.5902 18.705 63.7102 22.245C63.8302 25.785 63.8902 29.37 63.8902 33H54.9352C54.6052 29.13 54.3352 25.35 54.1252 21.66C53.9452 17.94 53.7502 14.115 53.5402 10.185ZM84.7129 2.805V2.445C84.7129 2.205 84.7129 1.98 84.7129 1.77C84.7429 1.56 84.7579 1.35 84.7579 1.14V0.735C84.9979 0.735 85.5679 0.735 86.4679 0.735C87.3679 0.704998 88.3279 0.689998 89.3479 0.689998C90.3679 0.659998 91.3129 0.644998 92.1829 0.644998C93.0829 0.614999 93.6529 0.599999 93.8929 0.599999H94.1179H94.2079L94.1179 9.555V10.14L94.5679 33H93.8479C93.5779 33 93.2629 33 92.9029 33C92.5429 33 92.1679 33 91.7779 33C91.4179 33.03 91.0429 33.045 90.6529 33.045C90.2929 33.045 89.9779 33.045 89.7079 33.045H88.5379H87.9529C87.6529 33.045 87.3229 33.03 86.9629 33C86.6329 33 86.3479 33 86.1079 33H85.7929L85.3879 32.55C85.3879 32.49 85.3729 32.16 85.3429 31.56C85.3129 30.93 85.2679 30.075 85.2079 28.995C85.1779 27.915 85.1329 26.79 85.0729 25.62C85.0429 24.45 84.9979 23.295 84.9379 22.155C84.9079 20.985 84.8779 20.01 84.8479 19.23C84.7279 16.41 84.6679 13.68 84.6679 11.04C84.6979 8.37 84.7129 5.625 84.7129 2.805ZM120.621 32.775L112.746 32.91C112.746 32.19 112.731 31.26 112.701 30.12C112.701 28.98 112.701 27.855 112.701 26.745V23.775V22.74C112.701 22.35 112.716 22.14 112.746 22.11V21.255L112.566 20.22L108.291 15.36C108.321 16.8 108.351 18.375 108.381 20.085C108.441 21.765 108.486 23.43 108.516 25.08C108.576 26.7 108.621 28.215 108.651 29.625C108.711 31.005 108.771 32.085 108.831 32.865L99.5607 33L98.5707 4.785L98.4807 4.605C98.4807 4.605 98.4807 4.59 98.4807 4.56C98.5107 4.53 98.5407 4.5 98.5707 4.47L98.5257 1.32L101.676 1.05L101.811 0.914997C101.871 0.884998 102.051 0.869998 102.351 0.869998H102.801H103.611H105.456L106.221 1.365C106.821 1.785 107.376 2.325 107.886 2.985C108.426 3.615 108.951 4.185 109.461 4.695L112.206 7.755C112.206 7.455 112.191 7.035 112.161 6.495C112.161 5.925 112.161 5.31 112.161 4.65V2.58V0.689998C112.461 0.719999 112.716 0.749999 112.926 0.779999C113.166 0.779999 113.451 0.779999 113.781 0.779999H119.361L119.811 1.41L120.036 4.605L120.126 4.875V5.28C120.126 5.61 120.111 6.075 120.081 6.675C120.051 7.245 120.081 7.71 120.171 8.07C120.231 9.69 120.291 11.58 120.351 13.74C120.411 15.87 120.456 18.075 120.486 20.355C120.546 22.605 120.576 24.825 120.576 27.015C120.606 29.175 120.621 31.095 120.621 32.775ZM143.742 10.185L143.517 9.195C143.427 9.105 143.352 9.06 143.292 9.06H138.162L137.982 8.835C137.922 8.835 137.862 8.685 137.802 8.385C137.742 8.055 137.712 7.8 137.712 7.62C137.622 6.51 137.562 5.58 137.532 4.83C137.532 4.05 137.532 3.18 137.532 2.22V0.914997C137.952 0.914997 138.612 0.914997 139.512 0.914997C140.442 0.884998 141.417 0.869998 142.437 0.869998C143.457 0.839998 144.417 0.824998 145.317 0.824998C146.217 0.794999 146.862 0.779999 147.252 0.779999H157.467L157.692 0.914997L157.962 6.54V7.53C157.962 7.62 157.872 7.755 157.692 7.935C157.632 7.905 157.422 7.89 157.062 7.89H156.432C155.772 7.89 155.142 7.995 154.542 8.205C153.972 8.385 153.612 8.715 153.462 9.195V9.42C153.462 9.51 153.447 9.615 153.417 9.735C153.417 9.825 153.417 9.945 153.417 10.095V10.59C153.417 10.74 153.417 10.875 153.417 10.995C153.447 11.115 153.462 11.235 153.462 11.355V11.49C153.642 15.12 153.792 18.705 153.912 22.245C154.032 25.785 154.092 29.37 154.092 33H145.137C144.807 29.13 144.537 25.35 144.327 21.66C144.147 17.94 143.952 14.115 143.742 10.185ZM161.98 6.405C162.01 5.955 162.13 5.46 162.34 4.92C162.58 4.35 162.85 3.81 163.15 3.3C163.48 2.79 163.825 2.325 164.185 1.905C164.575 1.485 164.95 1.17 165.31 0.959999C166.57 0.869999 167.68 0.794999 168.64 0.735C169.63 0.674999 170.575 0.629998 171.475 0.599999C172.375 0.569999 173.29 0.554999 174.22 0.554999C175.15 0.524998 176.185 0.509997 177.325 0.509997H178.135C178.435 0.509997 178.675 0.554998 178.855 0.644998C179.065 0.734999 179.29 0.779999 179.53 0.779999H179.8L182.5 3.12C182.65 3.3 182.785 3.765 182.905 4.515C183.055 5.265 183.175 6.195 183.265 7.305C183.385 8.415 183.475 9.69 183.535 11.13C183.625 12.54 183.7 14.01 183.76 15.54C183.82 17.07 183.865 18.615 183.895 20.175C183.925 21.735 183.94 23.22 183.94 24.63V27.06V28.095V28.59C183.94 28.83 183.91 28.98 183.85 29.04C183.85 29.34 183.73 29.715 183.49 30.165C183.25 30.615 182.935 31.05 182.545 31.47C182.185 31.89 181.78 32.25 181.33 32.55C180.88 32.85 180.46 33 180.07 33H166.795C166.795 33 166.735 32.955 166.615 32.865C166.525 32.745 166.39 32.61 166.21 32.46C166.06 32.28 165.895 32.115 165.715 31.965C165.565 31.785 165.43 31.635 165.31 31.515C165.28 31.485 165.19 31.395 165.04 31.245C164.92 31.095 164.77 30.93 164.59 30.75C164.44 30.54 164.29 30.345 164.14 30.165C163.99 29.955 163.9 29.805 163.87 29.715C163.3 28.965 162.91 27.9 162.7 26.52C162.49 25.11 162.355 23.64 162.295 22.11C162.265 20.55 162.265 19.05 162.295 17.61C162.325 16.14 162.325 14.97 162.295 14.1C162.295 13.8 162.28 13.29 162.25 12.57C162.25 11.82 162.235 11.04 162.205 10.23C162.175 9.42 162.13 8.655 162.07 7.935C162.04 7.185 162.01 6.675 161.98 6.405ZM171.745 12.975V15.765C171.745 17.025 171.775 18.42 171.835 19.95C171.895 21.48 172 23.1 172.15 24.81H175.84C175.9 24.81 175.975 24.675 176.065 24.405C176.155 24.105 176.2 23.865 176.2 23.685V21.93C176.2 19.77 176.155 17.49 176.065 15.09C176.005 12.66 175.93 10.365 175.84 8.205C175.75 8.145 175.51 8.025 175.12 7.845C174.73 7.665 174.475 7.545 174.355 7.485C174.355 7.485 174.28 7.485 174.13 7.485C173.98 7.455 173.875 7.44 173.815 7.44C173.635 7.44 173.425 7.515 173.185 7.665C172.975 7.785 172.765 7.95 172.555 8.16C172.375 8.34 172.21 8.535 172.06 8.745C171.91 8.955 171.82 9.15 171.79 9.33V10.05C171.79 10.41 171.775 10.785 171.745 11.175C171.745 11.535 171.745 11.895 171.745 12.255V12.975ZM192.694 32.73L188.869 30.12L187.834 1.815V0.689998C189.364 0.689998 190.834 0.719998 192.244 0.779999C193.684 0.809999 195.169 0.854998 196.699 0.914997C196.879 1.035 196.969 1.155 196.969 1.275C196.969 1.395 196.954 1.5 196.924 1.59C196.924 1.65 196.924 1.68 196.924 1.68C196.924 1.98 196.939 2.595 196.969 3.525C197.029 4.455 197.089 5.535 197.149 6.765C197.209 7.995 197.269 9.315 197.329 10.725C197.389 12.105 197.449 13.41 197.509 14.64C197.569 15.87 197.614 16.95 197.644 17.88C197.704 18.81 197.734 19.41 197.734 19.68V19.86C197.824 20.28 197.869 20.805 197.869 21.435C197.899 22.065 197.914 22.575 197.914 22.965V23.37C198.034 23.82 198.289 24.21 198.679 24.54C199.069 24.84 199.654 24.99 200.434 24.99C200.674 24.99 200.974 24.945 201.334 24.855C201.724 24.735 201.964 24.54 202.054 24.27V23.73V21.795V21.255C202.054 17.985 201.949 14.745 201.739 11.535C201.529 8.295 201.424 5.04 201.424 1.77V1.05C201.424 0.929998 201.499 0.884998 201.649 0.914997C201.829 0.914997 201.964 0.914997 202.054 0.914997C203.344 0.914997 204.604 0.929998 205.834 0.959999C207.064 0.989999 208.324 1.065 209.614 1.185C209.644 1.755 209.689 2.64 209.749 3.84C209.809 5.04 209.869 6.405 209.929 7.935C209.989 9.435 210.049 11.025 210.109 12.705C210.199 14.355 210.274 15.93 210.334 17.43C210.424 18.93 210.499 20.28 210.559 21.48C210.619 22.65 210.664 23.52 210.694 24.09V25.17C210.694 25.41 210.709 25.665 210.739 25.935C210.769 26.205 210.784 26.475 210.784 26.745V27.555V28.05V28.725C210.784 29.175 210.769 29.595 210.739 29.985C210.709 30.375 210.694 30.57 210.694 30.57L207.229 32.865C207.019 32.985 206.809 33.03 206.599 33C206.389 33 206.134 33 205.834 33H204.754C203.884 33 202.789 33 201.469 33C200.179 32.97 198.919 32.955 197.689 32.955C196.459 32.925 195.394 32.91 194.494 32.91C193.624 32.88 193.189 32.865 193.189 32.865L192.694 32.73ZM234.86 6.405C234.77 6.735 234.71 7.275 234.68 8.025C234.68 8.775 234.68 9.585 234.68 10.455V12.075L225.995 11.85V11.625C225.995 11.265 225.95 11.01 225.86 10.86C225.8 10.68 225.77 10.41 225.77 10.05V9.33C225.71 9 225.59 8.625 225.41 8.205C225.26 7.755 224.975 7.53 224.555 7.53L223.52 7.485L222.845 8.205C222.785 10.365 222.785 12.66 222.845 15.09C222.905 17.52 222.935 19.815 222.935 21.975V23.82C222.935 24 222.98 24.24 223.07 24.54C223.16 24.81 223.22 24.945 223.25 24.945H225.815C225.905 24.255 225.965 23.55 225.995 22.83C226.025 22.11 226.055 21.42 226.085 20.76H235.175V23.46C235.175 24.75 235.115 25.965 234.995 27.105C234.905 28.245 234.605 29.13 234.095 29.76C234.005 29.85 233.885 30 233.735 30.21C233.615 30.39 233.48 30.585 233.33 30.795C233.21 30.975 233.09 31.14 232.97 31.29C232.88 31.44 232.82 31.53 232.79 31.56C232.67 31.68 232.52 31.83 232.34 32.01C232.16 32.16 231.98 32.325 231.8 32.505C231.62 32.655 231.47 32.79 231.35 32.91C231.23 33 231.17 33.045 231.17 33.045H219.605C219.245 33.045 218.81 32.895 218.3 32.595C217.82 32.295 217.355 31.935 216.905 31.515C216.485 31.095 216.125 30.66 215.825 30.21C215.525 29.76 215.375 29.385 215.375 29.085C215.315 29.055 215.285 28.905 215.285 28.635L214.7 24.675V20.22V15.585C214.7 14.055 214.7 12.57 214.7 11.13C214.73 9.69 214.775 8.415 214.835 7.305C214.895 6.165 214.97 5.235 215.06 4.515C215.18 3.765 215.315 3.3 215.465 3.12L218.21 0.779999H218.48C218.72 0.779999 218.96 0.734999 219.2 0.644998C219.44 0.554998 219.71 0.509997 220.01 0.509997H220.82C221.9 0.509997 222.83 0.524998 223.61 0.554999C224.39 0.554999 225.125 0.569999 225.815 0.599999C226.535 0.599999 227.27 0.629998 228.02 0.689998C228.8 0.749999 229.745 0.824998 230.855 0.914997L231.485 0.959999C231.845 1.17 232.22 1.485 232.61 1.905C233 2.325 233.345 2.79 233.645 3.3C233.975 3.81 234.245 4.35 234.455 4.92C234.665 5.46 234.8 5.955 234.86 6.405ZM253.638 32.865L253.143 20.175L248.868 20.535L249.048 32.73H239.868L239.688 32.415C239.688 32.415 239.673 32.115 239.643 31.515C239.643 30.915 239.643 30.15 239.643 29.22V22.965C239.643 21.705 239.628 20.505 239.598 19.365C239.568 18.225 239.553 17.235 239.553 16.395C239.553 13.755 239.463 11.16 239.283 8.61C239.133 6.03 239.058 3.42 239.058 0.779999C240.558 0.779999 242.148 0.794999 243.828 0.824998C245.538 0.824998 247.173 0.839998 248.733 0.869998C248.733 1.56 248.733 2.475 248.733 3.615C248.763 4.755 248.778 5.88 248.778 6.99C248.778 8.07 248.778 9.015 248.778 9.825C248.808 10.635 248.823 11.04 248.823 11.04V14.595H252.648L252.783 13.155L252.603 0.869998C252.633 0.899998 252.888 0.914997 253.368 0.914997H254.223H260.163V7.35V9.285C260.163 10.125 260.178 11.13 260.208 12.3C260.238 13.47 260.253 14.7 260.253 15.99C260.283 17.25 260.313 18.525 260.343 19.815C260.373 21.075 260.388 22.245 260.388 23.325V24.81V25.485C260.388 25.785 260.403 25.95 260.433 25.98V32.865L260.208 33C260.178 33 260.058 33 259.848 33C259.668 33.03 259.518 33.045 259.398 33.045L258.228 33H258.003C257.673 33 257.253 33 256.743 33C256.263 32.97 255.783 32.955 255.303 32.955C254.853 32.925 254.463 32.91 254.133 32.91C253.803 32.88 253.638 32.865 253.638 32.865Z" fill="#242F35"/>
</svg>
