<svg width="675" height="391" viewBox="0 0 675 391" fill="none" xmlns="http://www.w3.org/2000/svg">
<g clip-path="url(#clip0_354_4109)">
<path d="M635.002 175.61L635.443 175.354L636.327 175.866L635.887 176.122L672.84 197.455L636.827 218.382L637.271 218.639L636.39 219.151L635.946 218.895L599.933 239.822L600.377 240.078L599.496 240.59L599.052 240.334L563.04 261.261L563.484 261.517L562.602 262.03L562.158 261.773L526.149 282.7L526.593 282.956L525.712 283.469L525.268 283.213L489.258 304.139L489.702 304.396L488.821 304.908L488.377 304.652L452.368 325.579L452.812 325.835L451.93 326.348L451.486 326.091L415.477 347.018L415.921 347.274L415.04 347.787L414.596 347.531L378.587 368.457L379.03 368.714L378.149 369.226L377.705 368.97L341.696 389.897L304.743 368.564L304.302 368.82L303.418 368.307L303.858 368.051L266.908 346.718L266.468 346.974L265.58 346.462L266.021 346.206L229.071 324.872L228.63 325.129L227.743 324.616L228.183 324.36L191.233 303.027L190.792 303.283L189.905 302.771L190.346 302.514L153.396 281.181L152.955 281.438L152.067 280.925L152.508 280.669L115.558 259.336L115.117 259.592L114.23 259.079L114.67 258.823L77.7204 237.49L77.2797 237.746L76.3922 237.234L76.8328 236.978L39.8828 215.644L39.4421 215.901L38.5546 215.388L38.9952 215.132L2.04521 193.799L38.0545 172.872L37.6107 172.616L38.4921 172.103L38.9358 172.36L74.9452 151.433L74.5014 151.176L75.3827 150.664L75.8265 150.92L111.836 129.993L111.392 129.737L112.273 129.225L112.717 129.481L148.726 108.554L148.283 108.298L149.164 107.785L149.608 108.042L185.617 87.1148L185.173 86.8586L186.055 86.346L186.498 86.6023L222.508 65.6755L222.064 65.4192L222.945 64.9067L223.389 65.163L259.401 44.2362L258.958 43.9799L259.839 43.4674L260.283 43.7236L296.295 22.7969L295.851 22.5406L296.733 22.0281L297.177 22.2843L333.189 1.35755L370.139 22.6906L370.58 22.4343L371.467 22.9469L371.027 23.2032L407.977 44.5362L408.417 44.28L409.305 44.7925L408.864 45.0488L445.814 66.3818L446.255 66.1255L447.142 66.6381L446.702 66.8944L483.652 88.2274L484.092 87.9712L484.98 88.4837L484.539 88.74L521.486 110.073L521.927 109.817L522.814 110.329L522.374 110.586L559.324 131.919L559.764 131.662L560.652 132.175L560.211 132.431L597.161 153.764L597.602 153.508L598.49 154.021L598.049 154.277L635.002 175.61ZM674.605 197.455L333.176 0.329346L0.260689 193.799L341.693 390.925L674.605 197.455Z" fill="black"/>
<path d="M75.8734 193.693L38.9233 172.36L38.4796 172.103L37.5982 172.616L38.042 172.872L74.992 194.205L75.8734 193.693ZM113.714 215.538L76.7609 194.205L75.8796 194.718L112.83 216.051L113.714 215.538ZM151.552 237.384L114.602 216.051L113.72 216.563L150.67 237.896L151.552 237.384ZM189.389 259.229L152.439 237.896L151.558 238.409L188.508 259.742L189.389 259.229ZM227.227 281.075L190.277 259.742L189.396 260.254L226.346 281.588L227.227 281.075ZM265.068 302.924L228.118 281.591L227.236 282.103L264.186 303.436L265.068 302.924ZM302.905 324.769L265.955 303.436L265.074 303.949L302.024 325.282L302.905 324.769ZM340.743 346.615L303.793 325.282L302.911 325.794L339.861 347.128L340.743 346.615ZM379.024 368.717L378.58 368.461L341.627 347.128L340.746 347.64L377.699 368.973L378.143 369.229L379.024 368.717Z" fill="black"/>
<path d="M112.767 172.253L75.8171 150.92L75.3733 150.664L74.492 151.177L74.9358 151.433L111.886 172.766L112.767 172.253ZM150.605 194.099L113.655 172.766L112.773 173.278L149.723 194.612L150.605 194.099ZM188.442 215.945L151.492 194.612L150.611 195.124L187.561 216.457L188.442 215.945ZM226.283 237.79L189.333 216.457L188.452 216.97L225.402 238.303L226.283 237.79ZM264.121 259.636L227.171 238.303L226.289 238.815L263.239 260.148L264.121 259.636ZM301.958 281.481L265.008 260.148L264.127 260.661L301.077 281.994L301.958 281.481ZM339.796 303.33L302.846 281.997L301.964 282.51L338.914 303.843L339.796 303.33ZM377.636 325.176L340.686 303.843L339.805 304.355L376.755 325.688L377.636 325.176ZM415.918 347.278L415.474 347.021L378.521 325.688L377.64 326.201L414.593 347.534L415.037 347.79L415.918 347.278Z" fill="black"/>
<path d="M149.661 150.814L112.711 129.481L112.267 129.225L111.386 129.737L111.83 129.993L148.78 151.327L149.661 150.814ZM187.498 172.66L150.548 151.327L149.667 151.839L186.617 173.172L187.498 172.66ZM225.336 194.505L188.386 173.172L187.505 173.685L224.455 195.018L225.336 194.505ZM263.174 216.351L226.224 195.018L225.342 195.53L262.292 216.863L263.174 216.351ZM301.014 238.196L264.064 216.863L263.183 217.376L300.133 238.709L301.014 238.196ZM338.852 260.042L301.902 238.709L301.021 239.221L337.971 260.555L338.852 260.042ZM376.689 281.888L339.739 260.555L338.858 261.067L375.808 282.4L376.689 281.888ZM414.527 303.736L377.577 282.403L376.696 282.916L413.646 304.249L414.527 303.736ZM452.808 325.838L452.365 325.582L415.412 304.249L414.53 304.761L451.483 326.094L451.927 326.351L452.808 325.838Z" fill="black"/>
<path d="M186.551 129.375L149.601 108.042L149.158 107.785L148.276 108.298L148.72 108.554L185.67 129.887L186.551 129.375ZM224.389 151.22L187.439 129.887L186.558 130.4L223.508 151.733L224.389 151.22ZM262.23 173.066L225.28 151.733L224.398 152.245L261.348 173.578L262.23 173.066ZM300.067 194.912L263.117 173.578L262.236 174.091L299.186 195.424L300.067 194.912ZM337.905 216.757L300.955 195.424L300.074 195.937L337.024 217.27L337.905 216.757ZM375.743 238.603L338.793 217.27L337.911 217.782L374.861 239.115L375.743 238.603ZM413.583 260.448L376.633 239.115L375.752 239.628L412.702 260.961L413.583 260.448ZM451.421 282.294L414.471 260.961L413.59 261.473L450.54 282.807L451.421 282.294ZM489.702 304.396L489.258 304.14L452.305 282.807L451.424 283.319L488.377 304.652L488.821 304.908L489.702 304.396Z" fill="black"/>
<path d="M223.445 107.935L186.495 86.6022L186.051 86.3459L185.17 86.8585L185.614 87.1148L222.564 108.448L223.445 107.935ZM261.283 129.781L224.333 108.448L223.452 108.96L260.402 130.293L261.283 129.781ZM299.12 151.626L262.17 130.293L261.289 130.806L298.239 152.139L299.12 151.626ZM336.961 173.472L300.011 152.139L299.13 152.652L336.08 173.985L336.961 173.472ZM374.799 195.318L337.849 173.985L336.967 174.497L373.917 195.83L374.799 195.318ZM412.636 217.163L375.686 195.83L374.805 196.343L411.755 217.676L412.636 217.163ZM450.474 239.009L413.524 217.676L412.643 218.188L449.593 239.521L450.474 239.009ZM488.311 260.855L451.361 239.521L450.48 240.034L487.43 261.367L488.311 260.855ZM526.593 282.956L526.149 282.7L489.196 261.367L488.315 261.88L525.268 283.213L525.712 283.469L526.593 282.956Z" fill="black"/>
<path d="M260.336 86.4961L223.386 65.163L222.942 64.9067L222.061 65.4193L222.505 65.6755L259.455 87.0086L260.336 86.4961ZM298.173 108.342L261.223 87.0086L260.342 87.5212L297.292 108.854L298.173 108.342ZM336.011 130.187L299.061 108.854L298.18 109.367L335.13 130.7L336.011 130.187ZM373.852 152.033L336.902 130.7L336.02 131.212L372.97 152.545L373.852 152.033ZM411.689 173.878L374.739 152.545L373.858 153.058L410.808 174.391L411.689 173.878ZM449.527 195.724L412.577 174.391L411.696 174.904L448.646 196.237L449.527 195.724ZM487.365 217.573L450.415 196.24L449.533 196.752L486.483 218.085L487.365 217.573ZM525.202 239.418L488.252 218.085L487.371 218.598L524.321 239.931L525.202 239.418ZM563.483 261.52L563.04 261.264L526.087 239.931L525.205 240.443L562.158 261.777L562.602 262.033L563.483 261.52Z" fill="black"/>
<path d="M297.227 65.0566L260.277 43.7236L259.833 43.4673L258.951 43.9798L259.395 44.2361L296.345 65.5692L297.227 65.0566ZM335.067 86.9022L298.117 65.5692L297.236 66.0817L334.186 87.4148L335.067 86.9022ZM372.905 108.748L335.955 87.4148L335.074 87.9273L372.024 109.26L372.905 108.748ZM410.742 130.593L373.792 109.26L372.911 109.773L409.861 131.106L410.742 130.593ZM448.58 152.439L411.63 131.106L410.749 131.619L447.699 152.952L448.58 152.439ZM486.421 174.285L449.471 152.952L448.589 153.464L485.539 174.797L486.421 174.285ZM524.258 196.13L487.308 174.797L486.427 175.31L523.377 196.643L524.258 196.13ZM562.096 217.979L525.146 196.646L524.265 197.158L561.215 218.492L562.096 217.979ZM600.377 240.081L599.934 239.825L562.98 218.492L562.099 219.004L599.052 240.337L599.496 240.593L600.377 240.081Z" fill="black"/>
<path d="M334.12 43.6174L297.17 22.2844L296.726 22.0281L295.845 22.5406L296.289 22.7969L333.239 44.1299L334.12 43.6174ZM371.958 65.463L335.008 44.1299L334.127 44.6425L371.077 65.9756L371.958 65.463ZM409.799 87.3086L372.849 65.9756L371.967 66.4881L408.917 87.8211L409.799 87.3086ZM447.636 109.154L410.686 87.8211L409.805 88.3337L446.755 109.667L447.636 109.154ZM485.474 131L448.524 109.667L447.642 110.179L484.592 131.512L485.474 131ZM523.311 152.845L486.361 131.512L485.48 132.025L522.43 153.358L523.311 152.845ZM561.149 174.691L524.199 153.358L523.318 153.87L560.268 175.204L561.149 174.691ZM598.99 196.537L562.04 175.204L561.158 175.716L598.108 197.049L598.99 196.537ZM637.271 218.639L636.827 218.382L599.874 197.049L598.993 197.562L635.946 218.895L636.39 219.151L637.271 218.639Z" fill="black"/>
<path d="M636.327 175.866L635.443 175.354L635.002 175.61L598.99 196.537L598.108 197.049L562.096 217.979L561.215 218.488L525.202 239.418L524.324 239.928L488.311 260.855L487.43 261.367L451.421 282.294L450.54 282.809L414.527 303.736L413.646 304.249L377.636 325.176L376.752 325.688L340.743 346.615L339.861 347.127L303.849 368.054L303.411 368.31L304.296 368.82L304.737 368.567L340.746 347.637L341.627 347.124L377.64 326.198L378.521 325.685L414.53 304.758L415.415 304.246L451.424 283.319L452.305 282.806L488.318 261.88L489.199 261.367L525.208 240.44L526.09 239.928L562.102 219.001L562.983 218.488L598.996 197.562L599.874 197.049L635.887 176.122L636.327 175.866Z" fill="black"/>
<path d="M598.49 154.021L597.602 153.508L597.161 153.764L561.149 174.691L560.271 175.204L524.258 196.13L523.377 196.643L487.365 217.573L486.486 218.082L450.474 239.009L449.593 239.522L413.583 260.448L412.699 260.961L376.689 281.888L375.808 282.403L339.796 303.33L338.914 303.843L302.905 324.769L302.021 325.282L266.011 346.209L265.571 346.465L266.458 346.978L266.899 346.721L302.911 325.795L303.793 325.282L339.802 304.355L340.683 303.843L376.696 282.916L377.577 282.403L413.586 261.473L414.471 260.961L450.48 240.034L451.361 239.522L487.374 218.595L488.252 218.085L524.265 197.155L525.146 196.643L561.158 175.716L562.04 175.204L598.052 154.277L598.49 154.021Z" fill="black"/>
<path d="M560.652 132.175L559.764 131.662L559.324 131.919L523.311 152.845L522.433 153.358L486.421 174.285L485.539 174.797L449.527 195.724L448.646 196.237L412.636 217.163L411.755 217.676L375.743 238.603L374.861 239.115L338.852 260.042L337.967 260.555L301.958 281.481L301.077 281.997L265.068 302.924L264.183 303.436L228.174 324.363L227.733 324.619L228.621 325.132L229.061 324.876L265.071 303.949L265.955 303.436L301.964 282.51L302.846 281.997L338.858 261.067L339.74 260.555L375.749 239.628L376.633 239.115L412.643 218.188L413.524 217.676L449.533 196.749L450.415 196.237L486.427 175.31L487.308 174.797L523.321 153.87L524.199 153.358L560.211 132.431L560.652 132.175Z" fill="black"/>
<path d="M522.814 110.329L521.927 109.817L521.486 110.073L485.474 131L484.592 131.512L448.58 152.439L447.702 152.952L411.689 173.878L410.808 174.391L374.799 195.318L373.917 195.83L337.905 216.757L337.024 217.27L301.014 238.196L300.13 238.709L264.121 259.636L263.239 260.148L227.227 281.075L226.346 281.587L190.336 302.517L189.896 302.771L190.783 303.283L191.224 303.03L227.233 282.103L228.114 281.587L264.127 260.661L265.008 260.148L301.018 239.221L301.902 238.709L337.911 217.782L338.793 217.27L374.805 196.343L375.686 195.83L411.696 174.903L412.577 174.391L448.589 153.464L449.471 152.952L485.483 132.025L486.361 131.512L522.374 110.585L522.814 110.329Z" fill="black"/>
<path d="M484.977 88.4837L484.089 87.9712L483.649 88.2275L447.636 109.154L446.755 109.667L410.742 130.594L409.864 131.106L373.852 152.033L372.97 152.545L336.961 173.472L336.077 173.985L300.067 194.912L299.186 195.424L263.174 216.351L262.292 216.863L226.283 237.79L225.399 238.303L189.389 259.229L188.508 259.742L152.495 280.669L152.058 280.925L152.946 281.438L153.386 281.181L189.396 260.255L190.277 259.742L226.289 238.815L227.171 238.303L263.18 217.376L264.061 216.863L300.074 195.937L300.955 195.424L336.964 174.497L337.849 173.985L373.858 153.058L374.739 152.545L410.752 131.619L411.63 131.106L447.642 110.179L448.524 109.667L484.536 88.74L484.977 88.4837Z" fill="black"/>
<path d="M447.136 66.638L446.249 66.1255L445.811 66.3786L409.799 87.3085L408.917 87.8211L372.905 108.748L372.024 109.26L336.011 130.187L335.133 130.7L299.12 151.627L298.239 152.139L262.23 173.066L261.345 173.578L225.336 194.505L224.455 195.018L188.442 215.944L187.561 216.457L151.552 237.384L150.67 237.896L114.658 258.823L114.217 259.079L115.108 259.592L115.545 259.336L151.558 238.409L152.439 237.896L188.449 216.97L189.333 216.457L225.342 195.53L226.224 195.018L262.236 174.091L263.117 173.578L299.127 152.652L300.008 152.139L336.02 131.212L336.899 130.7L372.911 109.773L373.792 109.26L409.805 88.3336L410.686 87.8211L446.699 66.8943L447.136 66.638Z" fill="black"/>
<path d="M409.299 44.7926L408.411 44.28L407.97 44.5332L371.958 65.4631L371.08 65.9725L335.067 86.9024L334.186 87.4149L298.173 108.342L297.292 108.854L261.283 129.781L260.402 130.294L224.389 151.22L223.508 151.733L187.498 172.66L186.617 173.172L150.605 194.099L149.723 194.612L113.714 215.538L112.83 216.051L76.8203 236.978L76.3797 237.234L77.2672 237.746L77.7079 237.49L113.717 216.563L114.602 216.051L150.611 195.124L151.492 194.612L187.505 173.685L188.386 173.172L224.395 152.245L225.28 151.733L261.289 130.806L262.17 130.294L298.183 109.367L299.061 108.854L335.074 87.9275L335.955 87.4149L371.967 66.4882L372.845 65.9756L408.858 45.0457L409.299 44.7926Z" fill="black"/>
<path d="M371.461 22.9437L370.573 22.4312L370.133 22.6874L334.12 43.6173L333.239 44.1267L297.227 65.0566L296.348 65.5661L260.336 86.496L259.455 87.0085L223.445 107.935L222.564 108.448L186.552 129.375L185.67 129.887L149.661 150.814L148.776 151.326L112.767 172.253L111.886 172.766L75.8734 193.693L74.992 194.205L38.9827 215.132L38.5421 215.388L39.4296 215.901L39.8703 215.644L75.8796 194.718L76.7609 194.205L112.773 173.278L113.655 172.766L149.664 151.839L150.548 151.326L186.558 130.4L187.439 129.887L223.452 108.96L224.333 108.448L260.342 87.5211L261.223 87.0085L297.236 66.0786L298.117 65.5692L334.13 44.6393L335.008 44.1299L371.02 23.2L371.461 22.9437Z" fill="black"/>
<path d="M335.189 168.537L355.013 157.018L363.57 161.959L343.746 173.478L335.189 168.537Z" fill="black"/>
<path d="M335.37 104.591L355.194 93.0715L355.013 157.018L335.189 168.537L335.37 104.591Z" fill="black"/>
<path d="M335.37 104.591L355.194 93.0715L363.751 98.0126L343.927 109.532L335.37 104.591Z" fill="#ADADAD"/>
<path d="M343.927 109.532L363.751 98.0125L363.57 161.958L343.746 173.478L343.927 109.532Z" fill="#C2C2C2"/>
<path d="M335.149 104.21L344.149 109.407L343.968 173.863L334.967 168.665L335.149 104.21ZM343.746 173.478L343.927 109.532L335.37 104.591L335.189 168.537L343.746 173.478Z" fill="black"/>
<path d="M343.927 109.532L343.746 173.478L335.189 168.537L335.37 104.591L343.927 109.532Z" fill="#D3D3D3"/>
<path d="M344.149 109.407L363.976 97.8843L363.792 162.34L343.968 173.859L344.149 109.407Z" fill="black"/>
<path d="M335.149 104.21L354.972 92.6902L363.976 97.8844L344.149 109.407L335.149 104.21Z" fill="black"/>
<path d="M350.512 177.382L370.336 165.862L377.937 170.25L358.113 181.77L350.512 177.382Z" fill="black"/>
<path d="M369.004 188.061L388.828 176.538L397.651 181.632L377.827 193.152L369.004 188.061Z" fill="black"/>
<path d="M350.694 113.439L370.517 101.916L370.336 165.862L350.512 177.382L350.694 113.439Z" fill="black"/>
<path d="M358.244 134.906L378.068 123.386L377.937 170.25L358.113 181.77L358.244 134.906Z" fill="#C2C2C2"/>
<path d="M358.466 135.453L378.29 123.933L378.155 170.634L358.332 182.154L358.466 135.453Z" fill="black"/>
<path d="M358.6 135.112L378.427 123.59L388.828 176.538L369.004 188.061L358.6 135.112Z" fill="black"/>
<path d="M369.92 162.934L389.744 151.414L390.122 151.726L370.298 163.249L369.92 162.934Z" fill="#BEBEBE"/>
<path d="M358.244 134.906L378.068 123.386L378.427 123.59L358.6 135.112L358.244 134.906Z" fill="black"/>
<path d="M361.51 119.683L381.337 108.163L389.744 151.414L369.92 162.934L361.51 119.683Z" fill="#D1D1D1"/>
<path d="M350.694 113.439L370.517 101.919L381.337 108.163L361.51 119.683L350.694 113.439Z" fill="#ADADAD"/>
<path d="M361.685 119.53L381.509 108.007L389.903 151.176L370.076 162.699L361.685 119.53Z" fill="black"/>
<path d="M350.472 113.054L370.295 101.535L381.509 108.007L361.685 119.53L350.472 113.054Z" fill="black"/>
<path d="M370.408 124.821L390.231 113.298L390.122 151.726L370.298 163.249L370.408 124.821Z" fill="black"/>
<path d="M370.408 124.821L390.231 113.298L397.832 117.689L378.008 129.209L370.408 124.821Z" fill="#ADADAD"/>
<path d="M378.008 129.209L397.832 117.689L397.651 181.632L377.827 193.152L378.008 129.209Z" fill="#C2C2C2"/>
<path d="M370.186 124.437L378.23 129.081L378.049 193.536L368.836 188.217L358.469 135.453L358.338 182.154L350.294 177.51L350.475 113.054L361.688 119.527L370.083 162.696L370.186 124.437ZM377.827 193.152L378.008 129.206L370.408 124.818L370.298 163.246L369.942 163.04L361.51 119.68L350.69 113.433L350.509 177.379L358.11 181.767L358.244 134.9L358.6 135.106L369.004 188.055L377.827 193.152Z" fill="black"/>
<path d="M378.008 129.209L377.827 193.152L369.004 188.061L358.622 135.222L358.244 134.906L358.113 181.77L350.512 177.382L350.694 113.439L361.51 119.683L369.92 162.934L370.298 163.249L370.408 124.821L378.008 129.209Z" fill="#D3D3D3"/>
<path d="M378.23 129.081L398.054 117.561L397.869 182.017L378.046 193.536L378.23 129.081Z" fill="black"/>
<path d="M370.186 124.437L390.009 112.917L398.054 117.561L378.23 129.081L370.186 124.437Z" fill="black"/>
<path d="M430.71 190.499L430.766 210.878L422.528 215.635L422.472 195.255L430.71 190.499Z" fill="black"/>
<path d="M413.311 200.543L413.368 220.923L404.811 225.864L404.751 205.484L413.311 200.543Z" fill="black"/>
<path d="M472.941 215.041L473.001 235.421L430.766 210.878L430.71 190.499L472.941 215.041Z" fill="black"/>
<path d="M465.338 220.167L465.397 240.546L422.528 215.635L422.472 195.255L465.338 220.167Z" fill="#808080"/>
<path d="M465.116 220.295L465.175 240.675L422.087 215.635L422.031 195.255L465.116 220.295Z" fill="black"/>
<path d="M468.357 223.423L468.413 243.803C468.413 243.759 468.41 243.715 468.407 243.672C468.329 242.715 467.316 241.665 465.394 240.546L465.338 220.167C467.26 221.285 468.272 222.335 468.35 223.292C468.357 223.336 468.357 223.379 468.357 223.423Z" fill="#858585"/>
<path d="M468.357 223.423L468.413 243.803C468.413 243.759 468.41 243.715 468.407 243.672C468.329 242.715 467.316 241.665 465.394 240.546L465.338 220.167C467.26 221.285 468.272 222.335 468.35 223.292C468.357 223.336 468.357 223.379 468.357 223.423Z" fill="#858585"/>
<path d="M479.905 223.217L479.961 243.597C479.961 243.5 479.958 243.406 479.951 243.309C479.783 240.656 477.445 238.003 472.998 235.421L472.941 215.041C477.386 217.623 479.726 220.279 479.895 222.929C479.901 223.026 479.905 223.12 479.905 223.217Z" fill="black"/>
<path d="M468.357 223.423L468.413 243.803C468.413 243.759 468.41 243.715 468.407 243.672C468.329 242.715 467.316 241.665 465.394 240.546L465.338 220.167C467.26 221.285 468.272 222.335 468.35 223.292C468.357 223.336 468.357 223.379 468.357 223.423Z" fill="#858585"/>
<path d="M468.044 223.426L468.1 243.806C468.1 243.762 468.097 243.722 468.094 243.678C468.022 242.768 467.038 241.759 465.172 240.675L465.116 220.295C466.985 221.379 467.966 222.392 468.038 223.298C468.044 223.342 468.044 223.382 468.044 223.426Z" fill="black"/>
<path d="M456.178 225.454L456.237 245.834L413.368 220.923L413.311 200.543L456.178 225.454Z" fill="black"/>
<path d="M468.357 223.423L468.413 243.803C468.416 244.712 467.713 245.581 466.319 246.388C464.853 247.234 463.272 247.638 461.622 247.588C459.972 247.541 458.162 246.953 456.237 245.834L456.181 225.455C458.106 226.573 459.915 227.164 461.565 227.208C463.219 227.255 464.8 226.852 466.263 226.008C467.657 225.201 468.36 224.333 468.357 223.423Z" fill="black"/>
<path d="M446.986 230.027L447.042 250.407L404.811 225.864L404.751 205.484L446.986 230.027Z" fill="#808080"/>
<path d="M446.764 230.155L446.82 250.535L404.367 225.864L404.311 205.484L446.764 230.155Z" fill="black"/>
<path d="M479.905 223.217L479.961 243.597C479.967 246.144 477.92 248.619 473.867 250.96C469.66 253.388 465.21 254.563 460.637 254.457C456.059 254.351 451.483 252.988 447.039 250.407L446.983 230.027C451.427 232.608 456.006 233.974 460.581 234.077C465.15 234.183 469.604 233.008 473.81 230.58C477.864 228.242 479.911 225.764 479.905 223.217Z" fill="#858585"/>
<path d="M479.905 223.217L479.961 243.597C479.967 246.144 477.92 248.619 473.867 250.96C469.66 253.388 465.21 254.563 460.637 254.457C456.059 254.351 451.483 252.988 447.039 250.407L446.983 230.027C451.427 232.608 456.006 233.974 460.581 234.077C465.15 234.183 469.604 233.008 473.81 230.58C477.864 228.242 479.911 225.764 479.905 223.217Z" fill="#858585"/>
<path d="M480.217 223.217L480.273 243.597C480.28 246.194 478.201 248.713 474.088 251.088C469.819 253.554 465.288 254.748 460.625 254.638C455.965 254.532 451.321 253.151 446.82 250.535L446.764 230.155C451.268 232.771 455.912 234.152 460.569 234.258C465.231 234.368 469.76 233.171 474.032 230.708C478.145 228.333 480.226 225.814 480.217 223.217Z" fill="black"/>
<path d="M422.031 195.255L430.713 190.242L473.167 214.913C477.67 217.529 480.039 220.223 480.211 222.923C480.383 225.626 478.305 228.245 474.036 230.708C469.766 233.174 465.235 234.368 460.572 234.258C455.912 234.152 451.268 232.771 446.768 230.155L404.314 205.484L413.315 200.287L456.403 225.326C458.272 226.411 460.013 226.983 461.581 227.027C463.144 227.073 464.647 226.686 466.044 225.876C467.441 225.07 468.113 224.201 468.041 223.295C467.969 222.386 466.985 221.376 465.119 220.292L422.031 195.255ZM472.942 215.041L430.71 190.498L422.472 195.255L465.338 220.167C467.26 221.285 468.273 222.336 468.351 223.292C468.426 224.251 467.723 225.164 466.26 226.011C464.794 226.858 463.213 227.261 461.563 227.211C459.913 227.164 458.103 226.577 456.178 225.458L413.312 200.546L404.755 205.487L446.986 230.03C451.431 232.611 456.009 233.977 460.584 234.08C465.154 234.187 469.607 233.011 473.814 230.583C478.017 228.155 480.064 225.58 479.895 222.932C479.727 220.279 477.389 217.623 472.942 215.041Z" fill="black"/>
<path d="M430.71 190.499L472.941 215.041C477.386 217.623 479.726 220.279 479.895 222.929C480.064 225.577 478.017 228.152 473.813 230.58C469.607 233.008 465.156 234.183 460.584 234.077C456.006 233.971 451.43 232.608 446.986 230.027L404.754 205.484L413.311 200.543L456.178 225.455C458.103 226.573 459.912 227.164 461.562 227.208C463.216 227.255 464.797 226.852 466.26 226.008C467.722 225.164 468.422 224.248 468.35 223.289C468.272 222.333 467.26 221.282 465.338 220.164L422.472 195.252L430.71 190.499Z" fill="#F0F0F0"/>
<path d="M398.61 222.586L398.666 242.965C394.279 240.415 389.688 239.074 385.031 238.984C380.377 238.893 375.861 240.093 371.602 242.553C367.473 244.937 365.385 247.466 365.392 250.075L365.335 229.695C365.329 227.086 367.417 224.558 371.545 222.173C375.802 219.713 380.321 218.513 384.975 218.604C389.631 218.695 394.219 220.035 398.61 222.586Z" fill="black"/>
<path d="M389.497 227.205L389.553 247.585C385.85 245.431 382.406 245.247 379.312 247.031C377.902 247.844 377.199 248.7 377.202 249.597L377.146 229.217C377.143 228.324 377.846 227.464 379.255 226.652C382.346 224.867 385.793 225.051 389.497 227.205Z" fill="#858585"/>
<path d="M389.497 227.205L389.553 247.585C385.85 245.431 382.406 245.247 379.312 247.031C377.902 247.844 377.199 248.7 377.202 249.597L377.146 229.217C377.143 228.324 377.846 227.464 379.255 226.652C382.346 224.867 385.793 225.051 389.497 227.205Z" fill="#858585"/>
<path d="M389.275 227.333L389.331 247.713C385.725 245.616 382.518 245.438 379.53 247.16C378.174 247.944 377.496 248.754 377.496 249.604L377.44 229.224C377.436 228.377 378.115 227.564 379.474 226.78C382.462 225.058 385.665 225.236 389.275 227.333Z" fill="black"/>
<path d="M372.174 237.849L372.23 258.229C367.839 255.676 365.542 253.016 365.398 250.319C365.395 250.238 365.392 250.157 365.392 250.075L365.335 229.696C365.335 229.777 365.339 229.858 365.342 229.939C365.482 232.636 367.783 235.299 372.174 237.849Z" fill="#858585"/>
<path d="M380.174 232.586L380.23 252.966C378.215 251.794 377.202 250.669 377.199 249.597L377.143 229.217C377.149 230.289 378.158 231.414 380.174 232.586Z" fill="black"/>
<path d="M372.174 237.849L372.23 258.229C367.839 255.676 365.542 253.016 365.398 250.319C365.395 250.238 365.392 250.157 365.392 250.075L365.335 229.696C365.335 229.777 365.339 229.858 365.342 229.939C365.482 232.636 367.783 235.299 372.174 237.849Z" fill="#858585"/>
<path d="M371.952 237.978L372.008 258.357C367.561 255.773 365.229 253.069 365.085 250.325C365.082 250.244 365.079 250.16 365.079 250.079L365.023 229.699C365.023 229.78 365.026 229.864 365.029 229.946C365.173 232.69 367.501 235.393 371.952 237.978Z" fill="black"/>
<path d="M427.791 239.543L427.847 259.926L398.666 242.969L398.61 222.586L427.791 239.543Z" fill="black"/>
<path d="M419.787 244.809L419.846 265.189L389.553 247.584L389.497 227.205L419.787 244.809Z" fill="#808080"/>
<path d="M419.565 244.934L419.624 265.317L389.331 247.713L389.275 227.333L419.565 244.934Z" fill="black"/>
<path d="M422.818 248.175L422.875 268.555C422.872 267.483 421.862 266.358 419.843 265.186L419.787 244.806C421.806 245.981 422.815 247.106 422.818 248.175Z" fill="#858585"/>
<path d="M422.522 248.172L422.578 268.552C422.575 267.533 421.59 266.461 419.621 265.317L419.565 244.938C421.534 246.081 422.518 247.153 422.522 248.172Z" fill="black"/>
<path d="M410.467 250.188L410.524 270.571L380.234 252.966L380.174 232.586L410.467 250.188Z" fill="black"/>
<path d="M434.629 247.7L434.685 268.08C434.691 270.69 432.604 273.221 428.475 275.606C424.215 278.065 419.699 279.265 415.046 279.172C410.392 279.081 405.805 277.743 401.41 275.19L401.354 254.81C405.748 257.364 410.336 258.704 414.99 258.792C419.643 258.886 424.159 257.682 428.419 255.226C432.547 252.838 434.635 250.31 434.629 247.7Z" fill="#858585"/>
<path d="M422.818 248.175L422.875 268.555C422.878 269.452 422.175 270.308 420.765 271.121C417.671 272.906 414.23 272.721 410.524 270.568L410.467 250.188C414.174 252.341 417.615 252.529 420.709 250.741C422.118 249.929 422.822 249.072 422.818 248.175Z" fill="black"/>
<path d="M379.255 226.652C382.349 224.867 385.793 225.051 389.497 227.205L419.787 244.809C423.493 246.963 423.8 248.96 420.709 250.744C417.615 252.529 414.171 252.344 410.467 250.191L380.177 232.586C376.474 230.433 376.161 228.439 379.255 226.652ZM419.565 244.934L389.275 227.33C385.668 225.233 382.462 225.055 379.474 226.777C376.486 228.502 376.79 230.358 380.396 232.455L410.686 250.06C414.293 252.157 417.499 252.338 420.487 250.613C423.475 248.891 423.175 247.031 419.565 244.934Z" fill="black"/>
<path d="M401.354 254.807L401.41 275.187L372.23 258.229L372.174 237.849L401.354 254.807Z" fill="#808080"/>
<path d="M401.132 254.935L401.188 275.315L372.008 258.357L371.952 237.978L401.132 254.935Z" fill="black"/>
<path d="M434.629 247.7L434.685 268.08C434.691 270.69 432.604 273.221 428.475 275.606C424.215 278.065 419.699 279.265 415.046 279.172C410.392 279.081 405.805 277.743 401.41 275.19L401.354 254.81C405.748 257.364 410.336 258.704 414.99 258.792C419.643 258.886 424.159 257.682 428.419 255.226C432.547 252.838 434.635 250.31 434.629 247.7Z" fill="#858585"/>
<path d="M434.629 247.7L434.685 268.08C434.691 270.69 432.604 273.221 428.475 275.606C424.215 278.065 419.699 279.265 415.046 279.172C410.392 279.081 405.805 277.743 401.41 275.19L401.354 254.81C405.748 257.364 410.336 258.704 414.99 258.792C419.643 258.886 424.159 257.682 428.419 255.226C432.547 252.838 434.635 250.31 434.629 247.7Z" fill="#858585"/>
<path d="M434.629 247.7L434.685 268.08C434.691 270.69 432.604 273.221 428.475 275.606C424.215 278.065 419.699 279.265 415.046 279.172C410.392 279.081 405.805 277.743 401.41 275.19L401.354 254.81C405.748 257.364 410.336 258.704 414.99 258.792C419.643 258.886 424.159 257.682 428.419 255.226C432.547 252.838 434.635 250.31 434.629 247.7Z" fill="#858585"/>
<path d="M384.975 218.604C389.631 218.695 394.222 220.035 398.61 222.586L427.791 239.543C432.182 242.093 434.479 244.756 434.623 247.453C434.763 250.15 432.679 252.763 428.419 255.223C424.162 257.682 419.643 258.882 414.99 258.789C410.336 258.698 405.748 257.36 401.354 254.807L372.174 237.849C367.783 235.299 365.485 232.636 365.342 229.939C365.201 227.245 367.286 224.633 371.545 222.173C375.802 219.713 380.321 218.513 384.975 218.604ZM419.787 244.809L389.497 227.205C385.793 225.051 382.349 224.867 379.255 226.651C376.161 228.436 376.474 230.433 380.177 232.583L410.467 250.188C414.174 252.341 417.615 252.529 420.709 250.741C423.8 248.956 423.493 246.963 419.787 244.809Z" fill="#F7F7F7"/>
<path d="M434.941 247.7L434.998 268.08C435.004 270.74 432.885 273.312 428.694 275.731C424.372 278.225 419.774 279.443 415.033 279.35C410.296 279.259 405.639 277.9 401.188 275.315L401.132 254.935C405.583 257.523 410.239 258.879 414.977 258.97C419.718 259.064 424.315 257.845 428.638 255.351C432.829 252.932 434.948 250.36 434.941 247.7Z" fill="black"/>
<path d="M384.984 218.423C389.725 218.516 394.385 219.873 398.829 222.457L428.01 239.415C432.457 242 434.788 244.703 434.932 247.447C435.079 250.194 432.96 252.854 428.638 255.348C424.315 257.842 419.718 259.061 414.977 258.967C410.239 258.876 405.583 257.517 401.132 254.932L371.952 237.974C367.504 235.39 365.173 232.686 365.029 229.942C364.885 227.195 367.001 224.539 371.323 222.042C375.646 219.548 380.243 218.332 384.984 218.423ZM427.791 239.543L398.61 222.586C394.222 220.035 389.631 218.695 384.975 218.604C380.321 218.513 375.805 219.713 371.545 222.173C367.286 224.633 365.201 227.245 365.342 229.939C365.482 232.636 367.783 235.299 372.174 237.849L401.354 254.807C405.748 257.36 410.336 258.701 414.99 258.789C419.643 258.879 424.159 257.679 428.419 255.223C432.679 252.763 434.763 250.15 434.623 247.453C434.479 244.759 432.182 242.097 427.791 239.543Z" fill="black"/>
<path d="M483.636 168.447L483.692 188.83L477.936 185.482L477.879 165.103L483.636 168.447Z" fill="black"/>
<path d="M477.879 165.102L477.936 185.482C473.651 182.991 469.182 181.676 464.656 181.569C460.137 181.463 455.737 182.623 451.587 185.02C447.589 187.329 445.567 189.773 445.577 192.286L445.52 171.906C445.514 169.39 447.533 166.946 451.53 164.637C455.684 162.24 460.081 161.077 464.6 161.187C469.126 161.296 473.592 162.612 477.879 165.102Z" fill="black"/>
<path d="M469.244 169.444L469.301 189.823C465.806 187.792 462.522 187.639 459.534 189.364C458.156 190.161 457.468 190.992 457.471 191.858L457.415 171.478C457.412 170.612 458.1 169.778 459.478 168.984C462.462 167.259 465.75 167.415 469.244 169.444Z" fill="#858585"/>
<path d="M469.244 169.444L469.301 189.823C465.806 187.792 462.522 187.639 459.534 189.364C458.156 190.161 457.468 190.992 457.471 191.858L457.415 171.478C457.412 170.612 458.1 169.778 459.478 168.984C462.462 167.259 465.75 167.415 469.244 169.444Z" fill="#858585"/>
<path d="M469.019 169.572L469.076 189.952C465.681 187.98 462.631 187.826 459.753 189.489C458.428 190.255 457.765 191.042 457.768 191.861L457.712 171.481C457.709 170.663 458.371 169.875 459.697 169.109C462.575 167.45 465.625 167.6 469.019 169.572Z" fill="black"/>
<path d="M475.557 173.113L475.614 193.493L469.301 189.823L469.244 169.444L475.557 173.113Z" fill="#808080"/>
<path d="M483.636 168.447L483.692 188.83L475.614 193.492L475.557 173.113L483.636 168.447Z" fill="#808080"/>
<path d="M475.551 173.369L475.61 193.749L469.079 189.955L469.019 169.572L475.551 173.369Z" fill="black"/>
<path d="M484.077 168.447L484.133 188.83L475.61 193.749L475.551 173.369L484.077 168.447Z" fill="black"/>
<path d="M460.244 174.641L460.3 195.021C458.418 193.927 457.475 192.87 457.471 191.858L457.415 171.478C457.418 172.491 458.362 173.547 460.244 174.641Z" fill="black"/>
<path d="M452.24 179.904L452.296 200.284C448.011 197.793 445.749 195.202 445.583 192.58C445.577 192.483 445.574 192.386 445.574 192.289L445.517 171.909C445.517 172.006 445.52 172.103 445.527 172.2C445.692 174.822 447.955 177.413 452.24 179.904Z" fill="#858585"/>
<path d="M452.018 180.032L452.074 200.412C447.73 197.887 445.439 195.255 445.267 192.586C445.261 192.486 445.258 192.389 445.258 192.289L445.202 171.909C445.202 172.009 445.205 172.106 445.211 172.206C445.383 174.875 447.674 177.507 452.018 180.032Z" fill="black"/>
<path d="M507.694 182.429L507.751 202.809L500.009 198.312L499.953 177.929L507.694 182.429Z" fill="black"/>
<path d="M499.953 177.929L500.009 198.312L491.931 202.975L491.874 182.595L499.953 177.929Z" fill="black"/>
<path d="M500.25 187.461L500.306 207.844L491.931 202.975L491.874 182.595L500.25 187.461Z" fill="#808080"/>
<path d="M500.025 187.592L500.084 207.972L491.487 202.978L491.431 182.595L500.025 187.592Z" fill="black"/>
<path d="M514.414 190.427L514.47 210.806C514.47 210.71 514.467 210.613 514.461 210.516C514.292 207.894 512.035 205.303 507.751 202.812L507.694 182.432C511.979 184.923 514.236 187.514 514.404 190.136C514.411 190.23 514.414 190.327 514.414 190.427Z" fill="black"/>
<path d="M503.013 190.564L503.069 210.944C503.066 209.947 502.144 208.909 500.306 207.841L500.25 187.461C502.088 188.53 503.01 189.567 503.013 190.564Z" fill="#858585"/>
<path d="M502.713 190.564L502.769 210.944C502.766 209.997 501.872 209.013 500.081 207.972L500.025 187.592C501.816 188.63 502.71 189.617 502.713 190.564Z" fill="black"/>
<path d="M491.246 192.658L491.306 213.038L460.3 195.021L460.243 174.641L491.246 192.658Z" fill="black"/>
<path d="M503.013 190.564L503.069 210.944C503.072 211.813 502.378 212.65 500.988 213.454C498 215.179 494.743 215.038 491.306 213.038L491.249 192.658C494.69 194.658 497.947 194.799 500.931 193.074C502.322 192.271 503.013 191.433 503.013 190.564Z" fill="black"/>
<path d="M482.055 197.23L482.114 217.613L452.296 200.284L452.24 179.904L482.055 197.23Z" fill="#808080"/>
<path d="M481.833 197.358L481.892 217.738L452.077 200.412L452.018 180.032L481.833 197.358Z" fill="black"/>
<path d="M514.414 190.427L514.47 210.806C514.476 213.322 512.454 215.766 508.457 218.073C504.304 220.47 499.909 221.632 495.387 221.526C490.862 221.42 486.396 220.104 482.111 217.613L482.055 197.233C486.339 199.724 490.809 201.043 495.331 201.146C499.85 201.252 504.247 200.09 508.401 197.693C512.398 195.383 514.42 192.939 514.414 190.427Z" fill="#858585"/>
<path d="M514.414 190.427L514.47 210.806C514.476 213.322 512.454 215.766 508.457 218.073C504.304 220.47 499.909 221.632 495.387 221.526C490.862 221.42 486.396 220.104 482.111 217.613L482.055 197.233C486.339 199.724 490.809 201.043 495.331 201.146C499.85 201.252 504.247 200.09 508.401 197.693C512.398 195.383 514.42 192.939 514.414 190.427Z" fill="#858585"/>
<path d="M514.414 190.427L514.47 210.806C514.476 213.322 512.454 215.766 508.457 218.073C504.304 220.47 499.909 221.632 495.387 221.526C490.862 221.42 486.396 220.104 482.111 217.613L482.055 197.233C486.339 199.724 490.809 201.043 495.331 201.146C499.85 201.252 504.247 200.09 508.401 197.693C512.398 195.383 514.42 192.939 514.414 190.427Z" fill="#858585"/>
<path d="M514.414 190.427L514.47 210.806C514.476 213.322 512.454 215.766 508.457 218.073C504.304 220.47 499.909 221.632 495.387 221.526C490.862 221.42 486.396 220.104 482.111 217.613L482.055 197.233C486.339 199.724 490.809 201.043 495.331 201.146C499.85 201.252 504.247 200.09 508.401 197.693C512.398 195.383 514.42 192.939 514.414 190.427Z" fill="#858585"/>
<path d="M451.527 164.64C455.681 162.243 460.078 161.08 464.597 161.19C469.122 161.296 473.592 162.612 477.876 165.103L483.633 168.447L475.554 173.113L469.241 169.444C465.747 167.412 462.462 167.259 459.475 168.984C456.487 170.709 456.746 172.613 460.24 174.641L491.246 192.658C494.687 194.658 497.944 194.799 500.928 193.074C503.916 191.348 503.685 189.461 500.247 187.461L491.871 182.595L499.95 177.929L507.691 182.426C511.976 184.917 514.232 187.508 514.401 190.13C514.57 192.749 512.551 195.289 508.398 197.69C504.244 200.087 499.85 201.249 495.328 201.143C490.802 201.037 486.336 199.721 482.052 197.23L452.237 179.904C447.952 177.413 445.689 174.822 445.523 172.2C445.358 169.581 447.377 167.037 451.527 164.64Z" fill="#ECECEC"/>
<path d="M484.077 168.447L475.551 173.369L469.02 169.572C465.626 167.6 462.575 167.446 459.697 169.109C456.819 170.772 457.072 172.538 460.463 174.51L491.468 192.527C494.809 194.468 497.831 194.605 500.71 192.942C503.588 191.28 503.363 189.53 500.025 187.589L491.431 182.595L499.957 177.672L507.917 182.298C512.258 184.82 514.545 187.454 514.72 190.123C514.889 192.796 512.839 195.383 508.623 197.818C504.407 200.252 499.932 201.434 495.322 201.324C490.715 201.215 486.18 199.88 481.836 197.355L452.021 180.029C447.677 177.504 445.386 174.872 445.214 172.203C445.043 169.534 447.093 166.943 451.309 164.509C455.525 162.074 460 160.896 464.613 161.002C469.22 161.112 473.758 162.446 478.102 164.968L484.077 168.447ZM459.478 168.984C462.466 167.259 465.751 167.415 469.245 169.444L475.558 173.113L483.637 168.447L477.88 165.103C473.595 162.612 469.126 161.296 464.601 161.19C460.081 161.083 455.681 162.243 451.531 164.64C447.377 167.037 445.358 169.581 445.53 172.2C445.696 174.822 447.958 177.413 452.243 179.904L482.058 197.23C486.343 199.721 490.812 201.04 495.334 201.143C499.853 201.249 504.251 200.087 508.404 197.69C512.558 195.293 514.577 192.749 514.408 190.13C514.239 187.508 511.983 184.917 507.698 182.426L499.957 177.929L491.878 182.595L500.254 187.461C503.694 189.461 503.923 191.349 500.935 193.074C497.947 194.799 494.691 194.658 491.253 192.658L460.247 174.641C456.75 172.609 456.49 170.706 459.478 168.984Z" fill="black"/>
<path d="M514.729 190.42L514.786 210.8C514.792 213.369 512.742 215.857 508.679 218.201C504.463 220.635 499.987 221.817 495.378 221.707C490.771 221.598 486.236 220.264 481.892 217.738L481.836 197.358C486.18 199.884 490.718 201.218 495.321 201.328C499.931 201.437 504.407 200.256 508.623 197.821C512.682 195.474 514.736 192.986 514.729 190.42Z" fill="black"/>
<path d="M510.41 132.481L510.47 152.861L501.91 157.805L501.853 137.422L510.41 132.481Z" fill="black"/>
<path d="M492.212 142.988L492.271 163.368L483.714 168.309L483.655 147.929L492.212 142.988Z" fill="black"/>
<path d="M565.699 164.612L565.756 184.992L510.47 152.861L510.41 132.481L565.699 164.612Z" fill="black"/>
<path d="M524.452 150.558L524.511 170.937L501.91 157.805L501.853 137.422L524.452 150.558Z" fill="#808080"/>
<path d="M524.011 150.558L524.068 170.937L501.469 157.805L501.413 137.422L524.011 150.558Z" fill="black"/>
<path d="M524.452 150.558L524.511 170.937L514.87 176.504L514.814 156.121L524.452 150.558Z" fill="black"/>
<path d="M514.814 156.121L514.87 176.504L492.271 163.368L492.212 142.988L514.814 156.121Z" fill="black"/>
<path d="M532.162 155.036L532.218 175.416L522.58 180.982L522.524 160.602L532.162 155.036Z" fill="#808080"/>
<path d="M532.159 155.292L532.218 175.672L523.021 180.982L522.964 160.602L532.159 155.292Z" fill="black"/>
<path d="M565.699 164.612L565.756 184.992L557.199 189.933L557.139 169.553L565.699 164.612Z" fill="#808080"/>
<path d="M557.139 169.553L557.199 189.933L532.218 175.416L532.162 155.036L557.139 169.553Z" fill="#808080"/>
<path d="M557.139 169.809L557.195 190.189L532.218 175.672L532.159 155.292L557.139 169.809Z" fill="black"/>
<path d="M566.14 164.612L566.196 184.992L557.195 190.189L557.139 169.809L566.14 164.612Z" fill="black"/>
<path d="M547.501 175.119L547.557 195.499L522.58 180.982L522.524 160.602L547.501 175.119Z" fill="black"/>
<path d="M547.501 175.119L547.557 195.499L539 200.44L538.944 180.06L547.501 175.119Z" fill="#808080"/>
<path d="M538.944 180.06L539 200.44L483.714 168.309L483.655 147.929L538.944 180.06Z" fill="#808080"/>
<path d="M501.413 137.422L510.413 132.225L566.14 164.609L557.139 169.806L532.162 155.289L522.964 160.599L547.942 175.116L538.941 180.313L483.214 147.929L492.215 142.732L514.814 155.864L524.011 150.555L501.413 137.422ZM565.699 164.612L510.413 132.481L501.856 137.422L524.455 150.555L514.817 156.121L492.218 142.988L483.661 147.929L538.947 180.06L547.504 175.119L522.527 160.602L532.165 155.036L557.142 169.553L565.699 164.612Z" fill="black"/>
<path d="M510.41 132.481L565.699 164.612L557.139 169.553L532.162 155.036L522.524 160.602L547.501 175.119L538.944 180.06L483.655 147.929L492.212 142.988L514.814 156.121L524.452 150.558L501.853 137.422L510.41 132.481Z" fill="#ECECEC"/>
<path d="M547.942 175.119L548.001 195.499L539 200.696L538.941 180.313L547.942 175.119Z" fill="black"/>
<path d="M538.941 180.313L539 200.696L483.27 168.309L483.214 147.929L538.941 180.313Z" fill="black"/>
<path d="M359.976 243.6L360.032 263.98L352.322 259.501L352.266 239.118L359.976 243.6Z" fill="black"/>
<path d="M352.266 239.118L352.322 259.501L325.407 275.04L325.351 254.66L352.266 239.118Z" fill="black"/>
<path d="M359.976 243.6L360.032 263.98L350.853 269.28L350.794 248.901L359.976 243.6Z" fill="#808080"/>
<path d="M360.416 243.6L360.476 263.98L351.297 269.28L351.237 248.901L360.416 243.6Z" fill="black"/>
<path d="M342.24 253.842L342.296 274.221L333.117 279.522L333.061 259.139L342.24 253.842Z" fill="#808080"/>
<path d="M333.061 259.139L333.117 279.522L325.407 275.04L325.351 254.66L333.061 259.139Z" fill="#808080"/>
<path d="M342.237 254.095L342.296 274.478L333.114 279.778L333.055 259.395L342.237 254.095Z" fill="black"/>
<path d="M333.055 259.395L333.114 279.778L324.963 275.04L324.907 254.66L333.055 259.395Z" fill="black"/>
<path d="M398.373 276.55L398.429 296.929L350.853 269.28L350.794 248.9L398.373 276.55Z" fill="black"/>
<path d="M398.373 276.55L398.429 296.929L389.875 301.87L389.816 281.491L398.373 276.55Z" fill="#808080"/>
<path d="M389.816 281.491L389.875 301.871L342.296 274.221L342.24 253.842L389.816 281.491Z" fill="#808080"/>
<path d="M324.907 254.66L352.269 238.865L360.419 243.6L351.241 248.9L398.82 276.55L389.819 281.747L342.24 254.098L333.058 259.398L324.907 254.66ZM359.976 243.6L352.266 239.118L325.351 254.657L333.061 259.139L342.24 253.838L389.819 281.488L398.376 276.547L350.797 248.897L359.976 243.6Z" fill="black"/>
<path d="M352.266 239.118L359.976 243.6L350.794 248.901L398.373 276.55L389.816 281.491L342.24 253.842L333.061 259.139L325.351 254.66L352.266 239.118Z" fill="#EEEEEE"/>
<path d="M398.816 276.55L398.873 296.929L389.872 302.127L389.816 281.744L398.816 276.55Z" fill="black"/>
<path d="M389.816 281.744L389.872 302.127L342.296 274.478L342.237 254.095L389.816 281.744Z" fill="black"/>
<path d="M274.19 125.159L294.014 113.639L302.574 118.58L282.747 130.1L274.19 125.159Z" fill="black"/>
<path d="M265.193 55.9152L285.016 44.3955L284.991 53.3119L265.168 64.8316L265.193 55.9152Z" fill="black"/>
<path d="M265.168 64.8315L284.991 53.3118L294.17 58.6122L274.346 70.1319L265.168 64.8315Z" fill="black"/>
<path d="M274.346 70.132L294.17 58.6123L294.014 113.639L274.19 125.159L274.346 70.132Z" fill="black"/>
<path d="M282.903 75.0729L302.73 63.5532L302.574 118.58L282.747 130.103L282.903 75.0729Z" fill="#C2C2C2"/>
<path d="M283.125 75.4543L302.949 63.9346L302.793 118.964L282.969 130.484L283.125 75.4543Z" fill="black"/>
<path d="M282.903 75.0729L302.73 63.5532L311.906 68.8506L292.082 80.3734L282.903 75.0729Z" fill="black"/>
<path d="M292.107 71.454L311.934 59.9343L311.906 68.8507L292.082 80.3736L292.107 71.454Z" fill="#C2C2C2"/>
<path d="M292.107 71.4538L292.082 80.3734L282.903 75.0729L282.747 130.103L274.19 125.158L274.346 70.1319L265.168 64.8314L265.193 55.915L292.107 71.4538Z" fill="#D3D3D3"/>
<path d="M265.193 55.9152L285.016 44.3955L311.934 59.9343L292.107 71.454L265.193 55.9152Z" fill="#ADADAD"/>
<path d="M264.971 55.5339L292.329 71.329L292.301 80.7548L283.122 75.4544L282.966 130.484L273.965 125.287L274.121 70.2571L264.943 64.9566L264.971 55.5339ZM292.082 80.3736L292.107 71.4572L265.193 55.9184L265.168 64.8347L274.346 70.1352L274.19 125.165L282.747 130.106L282.903 75.0762L292.082 80.3736Z" fill="black"/>
<path d="M292.329 71.3291L312.156 59.8093L312.128 69.2351L292.304 80.7549L292.329 71.3291Z" fill="black"/>
<path d="M264.971 55.5339L284.798 44.0142L312.156 59.8092L292.33 71.329L264.971 55.5339Z" fill="black"/>
<path d="M264.927 140.801L245.103 129.281L245.078 120.365L264.902 131.887L264.927 140.801Z" fill="black"/>
<path d="M241.203 154.499L221.379 142.976L245.103 129.281L264.927 140.801L241.203 154.499Z" fill="black"/>
<path d="M249.738 140.641L229.915 129.122L245.078 120.365L264.902 131.887L249.738 140.641Z" fill="#9A9A9A"/>
<path d="M249.957 140.257L230.133 128.737L245.3 119.98L265.124 131.503L249.957 140.257Z" fill="black"/>
<path d="M261.733 113.708L241.909 102.188L241.884 93.2747L261.708 104.794L261.733 113.708Z" fill="black"/>
<path d="M249.682 120.668L229.855 109.145L241.909 102.188L261.733 113.708L249.682 120.668Z" fill="black"/>
<path d="M249.738 140.641L229.915 129.121L229.855 109.145L249.682 120.668L249.738 140.641Z" fill="black"/>
<path d="M249.657 111.751L229.83 100.232L241.884 93.2747L261.708 104.794L249.657 111.751Z" fill="#9A9A9A"/>
<path d="M249.876 111.367L230.052 99.8472L242.103 92.8872L261.93 104.41L249.876 111.367Z" fill="black"/>
<path d="M264.771 85.7743L244.947 74.2514L244.922 65.3381L264.746 76.8579L264.771 85.7743Z" fill="black"/>
<path d="M249.607 94.5279L229.783 83.0082L244.947 74.2512L264.771 85.7741L249.607 94.5279Z" fill="black"/>
<path d="M249.657 111.751L229.83 100.232L229.783 83.0083L249.607 94.528L249.657 111.751Z" fill="black"/>
<path d="M241.022 90.5559L221.198 79.0331L244.922 65.3381L264.746 76.8579L241.022 90.5559Z" fill="#9A9A9A"/>
<path d="M241.203 154.499L221.379 142.976L221.198 79.033L241.022 90.5558L241.203 154.499Z" fill="#F9F9F9"/>
<path d="M264.993 85.9024L249.829 94.6562L249.876 111.367L261.927 104.41L261.955 113.839L249.904 120.796L249.96 140.257L265.124 131.503L265.152 140.932L240.987 154.883L240.806 90.4277L264.971 76.4766L264.993 85.9024ZM261.708 104.795L249.657 111.751L249.607 94.5281L264.771 85.7742L264.746 76.861L241.022 90.559L241.203 154.502L264.927 140.804L264.902 131.891L249.738 140.648L249.682 120.671L261.733 113.714L261.708 104.795Z" fill="black"/>
<path d="M264.746 76.8577L264.771 85.774L249.607 94.5279L249.657 111.751L261.708 104.794L261.733 113.708L249.682 120.668L249.738 140.641L264.902 131.887L264.927 140.801L241.203 154.499L241.022 90.5557L264.746 76.8577Z" fill="#969696"/>
<path d="M240.8 90.4245L220.976 78.9048L245.144 64.9536L264.968 76.4733L240.8 90.4245Z" fill="black"/>
<path d="M240.984 154.883L221.161 143.36L220.976 78.9048L240.8 90.4245L240.984 154.883Z" fill="black"/>
<path d="M223.133 150.576L223.083 168.409C223.089 165.862 221.042 163.387 216.988 161.046C212.785 158.618 208.331 157.439 203.759 157.546C199.181 157.652 194.605 159.015 190.161 161.599L190.211 143.766C194.655 141.185 199.228 139.819 203.809 139.713C208.385 139.607 212.835 140.785 217.038 143.213C221.092 145.551 223.142 148.026 223.133 150.576Z" fill="black"/>
<path d="M211.679 150.398L211.629 168.231C211.632 167.334 210.929 166.478 209.522 165.665C206.428 163.88 202.984 164.065 199.278 166.218L199.328 148.385C203.034 146.232 206.478 146.048 209.572 147.832C210.979 148.645 211.682 149.501 211.679 150.398Z" fill="#858585"/>
<path d="M211.679 150.398L211.629 168.231C211.632 167.334 210.929 166.478 209.522 165.665C206.428 163.88 202.984 164.065 199.278 166.218L199.328 148.385C203.034 146.232 206.478 146.048 209.572 147.832C210.979 148.645 211.682 149.501 211.679 150.398Z" fill="#858585"/>
<path d="M211.382 150.401L211.332 168.234C211.335 167.387 210.657 166.575 209.3 165.793C206.313 164.068 203.106 164.249 199.499 166.346L199.549 148.514C203.156 146.417 206.366 146.235 209.35 147.96C210.707 148.742 211.385 149.554 211.382 150.401Z" fill="black"/>
<path d="M223.133 150.576L223.083 168.409C223.083 168.506 223.08 168.6 223.073 168.697C222.905 171.35 220.567 174.003 216.12 176.585L216.17 158.752C220.614 156.171 222.951 153.517 223.123 150.864C223.13 150.767 223.133 150.67 223.133 150.576Z" fill="#858585"/>
<path d="M211.679 150.398L211.629 168.231C211.626 169.303 210.616 170.428 208.597 171.6L208.647 153.767C210.666 152.592 211.676 151.467 211.679 150.398Z" fill="black"/>
<path d="M208.647 153.767L208.597 171.6L203.394 174.622L203.447 156.789L208.647 153.767Z" fill="black"/>
<path d="M223.133 150.576L223.083 168.409C223.083 168.506 223.08 168.6 223.073 168.697C222.905 171.35 220.567 174.003 216.12 176.585L216.17 158.752C220.614 156.171 222.951 153.517 223.123 150.864C223.13 150.767 223.133 150.67 223.133 150.576Z" fill="#858585"/>
<path d="M223.445 150.576L223.395 168.409C223.395 168.506 223.392 168.606 223.386 168.706C223.214 171.406 220.845 174.1 216.345 176.716L216.395 158.883C220.898 156.268 223.264 153.574 223.436 150.873C223.439 150.773 223.445 150.673 223.445 150.576Z" fill="black"/>
<path d="M190.214 143.766L190.164 161.599L160.981 178.557L161.034 160.724L190.214 143.766Z" fill="black"/>
<path d="M211.526 161.452L211.475 179.285L203.394 174.622L203.447 156.789L211.526 161.452Z" fill="#808080"/>
<path d="M216.173 158.752L216.12 176.585L211.475 179.285L211.526 161.452L216.173 158.752Z" fill="#808080"/>
<path d="M216.392 158.88L216.342 176.713L211.475 179.541L211.526 161.709L216.392 158.88Z" fill="black"/>
<path d="M211.526 161.708L211.475 179.541L202.953 174.622L203.003 156.789L211.526 161.708Z" fill="black"/>
<path d="M199.328 148.385L199.278 166.218L168.906 183.867L168.956 166.034L199.328 148.385Z" fill="#808080"/>
<path d="M199.549 148.514L199.496 166.346L169.128 183.995L169.178 166.162L199.549 148.514Z" fill="black"/>
<path d="M192.571 158.024L192.521 175.856L184.811 180.335L184.861 162.502L192.571 158.024Z" fill="black"/>
<path d="M189.252 165.037L189.202 182.87L184.811 180.335L184.861 162.502L189.252 165.037Z" fill="#808080"/>
<path d="M188.811 165.037L188.758 182.87L184.37 180.335L184.42 162.502L188.811 165.037Z" fill="black"/>
<path d="M205.041 165.221L204.991 183.054L192.521 175.856L192.571 158.024L205.041 165.221Z" fill="black"/>
<path d="M161.034 160.724L160.984 178.557C156.543 181.138 154.202 183.792 154.033 186.445C154.027 186.542 154.024 186.636 154.024 186.733L154.074 168.9C154.074 168.803 154.077 168.709 154.083 168.612C154.249 165.959 156.59 163.306 161.034 160.724Z" fill="black"/>
<path d="M169.178 166.162L169.128 183.995C167.203 185.114 166.24 186.167 166.237 187.173L166.287 169.34C166.29 168.334 167.253 167.281 169.178 166.162Z" fill="black"/>
<path d="M186.989 175.71L186.939 193.542C182.498 196.124 177.923 197.49 173.344 197.593C168.769 197.699 164.321 196.521 160.115 194.096C156.061 191.755 154.011 189.279 154.021 186.732L154.071 168.9C154.064 171.447 156.111 173.922 160.165 176.263C164.368 178.691 168.819 179.866 173.394 179.76C177.973 179.657 182.548 178.294 186.989 175.71Z" fill="#858585"/>
<path d="M189.252 165.037L189.202 182.87L178.226 189.248L178.276 171.416L189.252 165.037Z" fill="black"/>
<path d="M178.276 171.416L178.226 189.248C174.575 191.37 171.156 191.539 168.066 189.755C166.647 188.936 165.937 188.073 165.94 187.176L165.99 169.344C165.987 170.24 166.697 171.103 168.116 171.922C171.206 173.706 174.629 173.534 178.276 171.416Z" fill="black"/>
<path d="M205.041 165.221L204.991 183.054L186.939 193.545L186.989 175.71L205.041 165.221Z" fill="#808080"/>
<path d="M205.481 165.221L205.431 183.054L187.161 193.67L187.211 175.838L205.481 165.221Z" fill="black"/>
<path d="M186.989 175.71L186.939 193.542C182.498 196.124 177.923 197.49 173.344 197.593C168.769 197.699 164.321 196.521 160.115 194.096C156.061 191.755 154.011 189.279 154.021 186.732L154.071 168.9C154.064 171.447 156.111 173.922 160.165 176.263C164.368 178.691 168.819 179.866 173.394 179.76C177.973 179.657 182.548 178.294 186.989 175.71Z" fill="#858585"/>
<path d="M217.042 143.213C221.245 145.642 223.292 148.214 223.126 150.864C222.958 153.517 220.62 156.171 216.173 158.752L211.526 161.452L203.447 156.786L208.647 153.764C212.354 151.611 212.66 149.614 209.569 147.829C206.475 146.045 203.031 146.229 199.324 148.382L168.956 166.034C165.306 168.156 165.025 170.137 168.116 171.922C171.206 173.706 174.625 173.535 178.276 171.416L189.252 165.037L184.861 162.502L192.571 158.021L205.041 165.221L186.992 175.71C182.551 178.291 177.976 179.657 173.397 179.76C168.822 179.866 164.375 178.688 160.168 176.263C155.961 173.835 153.914 171.259 154.083 168.612C154.252 165.959 156.59 163.306 161.034 160.724L190.214 143.766C194.658 141.185 199.231 139.819 203.812 139.713C208.385 139.607 212.835 140.785 217.042 143.213Z" fill="#ECECEC"/>
<path d="M211.526 161.708L203.003 156.789L208.425 153.639C212.032 151.542 212.335 149.686 209.351 147.96C206.363 146.235 203.156 146.417 199.55 148.514L169.178 166.162C165.625 168.228 165.35 170.069 168.338 171.794C171.322 173.516 174.504 173.35 178.057 171.287L188.811 165.037L184.42 162.502L192.571 157.768L205.485 165.221L187.214 175.838C182.714 178.454 178.07 179.835 173.41 179.941C168.747 180.051 164.219 178.854 159.949 176.391C155.68 173.925 153.599 171.306 153.774 168.606C153.943 165.906 156.315 163.212 160.812 160.596L189.993 143.638C194.496 141.022 199.137 139.641 203.797 139.535C208.463 139.425 212.988 140.622 217.261 143.085C221.53 145.548 223.605 148.167 223.433 150.87C223.261 153.57 220.895 156.264 216.392 158.88L211.526 161.708ZM209.569 147.832C212.66 149.617 212.351 151.614 208.647 153.767L203.447 156.789L211.526 161.455L216.173 158.755C220.617 156.174 222.955 153.52 223.127 150.867C223.295 148.217 221.248 145.645 217.042 143.216C212.838 140.788 208.385 139.61 203.813 139.716C199.234 139.822 194.659 141.185 190.215 143.769L161.034 160.727C156.593 163.309 154.252 165.962 154.083 168.615C153.915 171.266 155.962 173.838 160.168 176.266C164.372 178.694 168.822 179.869 173.397 179.763C177.976 179.657 182.551 178.294 186.992 175.713L205.041 165.224L192.571 158.024L184.861 162.505L189.252 165.04L178.276 171.419C174.626 173.541 171.207 173.709 168.116 171.925C165.022 170.14 165.306 168.159 168.956 166.037L199.328 148.389C203.031 146.232 206.478 146.045 209.569 147.832Z" fill="black"/>
<path d="M187.211 175.838L187.161 193.671C182.661 196.286 178.016 197.668 173.357 197.774C168.694 197.883 164.165 196.686 159.896 194.224C155.783 191.849 153.702 189.333 153.711 186.736L153.761 168.903C153.755 171.5 155.833 174.016 159.946 176.391C164.215 178.854 168.744 180.051 173.407 179.941C178.066 179.835 182.711 178.454 187.211 175.838Z" fill="black"/>
</g>
<defs>
<clipPath id="clip0_354_4109">
<rect width="675" height="391" fill="white"/>
</clipPath>
</defs>
</svg>
