<svg width="23" height="22" viewBox="0 0 23 22" fill="none" xmlns="http://www.w3.org/2000/svg">
<path fill-rule="evenodd" clip-rule="evenodd" d="M11.5 0C5.14625 0 0 5.04701 0 11.2782C0 16.2688 3.29187 20.4841 7.86313 21.9785C8.43813 22.0771 8.65375 21.7388 8.65375 21.4427C8.65375 21.1749 8.63938 20.2867 8.63938 19.3422C5.75 19.8638 5.0025 18.6514 4.7725 18.017C4.64312 17.6927 4.0825 16.6918 3.59375 16.4239C3.19125 16.2125 2.61625 15.6908 3.57938 15.6767C4.485 15.6626 5.13188 16.4944 5.3475 16.8328C6.3825 18.5386 8.03563 18.0593 8.69688 17.7632C8.7975 17.0301 9.09938 16.5367 9.43 16.2548C6.87125 15.9728 4.1975 15 4.1975 10.6861C4.1975 9.45962 4.64313 8.44458 5.37625 7.6551C5.26125 7.37314 4.85875 6.21713 5.49125 4.66637C5.49125 4.66637 6.45438 4.37032 8.65375 5.82239C9.57375 5.56863 10.5513 5.44175 11.5288 5.44175C12.5063 5.44175 13.4838 5.56863 14.4038 5.82239C16.6031 4.35622 17.5663 4.66637 17.5663 4.66637C18.1988 6.21713 17.7963 7.37314 17.6813 7.6551C18.4144 8.44458 18.86 9.44552 18.86 10.6861C18.86 15.0141 16.1719 15.9728 13.6131 16.2548C14.03 16.6072 14.3894 17.2839 14.3894 18.3412C14.3894 19.8497 14.375 21.0621 14.375 21.4427C14.375 21.7388 14.5906 22.0912 15.1656 21.9785C19.7081 20.4841 23 16.2548 23 11.2782C23 5.04701 17.8538 0 11.5 0Z" fill="#1B1F23"/>
</svg>
