<svg width="417" height="123" viewBox="0 0 417 123" fill="none" xmlns="http://www.w3.org/2000/svg">
<path d="M83.9129 1C166.973 1.03012 250.03 1.03012 333.09 1C347.816 19.1168 355.962 38.3882 373.545 55.8473C388.259 70.4566 401.695 85.1729 414 100.438C277.003 100.336 139.997 100.336 3 100.438C15.3054 85.1746 28.7443 70.4549 43.4549 55.8473C61.0438 38.3882 69.187 19.1184 83.9129 1Z" stroke="black" stroke-width="2" stroke-miterlimit="10"/>
<path d="M14.4576 86.2472C49.2636 86.428 83.5474 89.5356 117.886 92.3168C148.131 94.7668 177.924 96.2729 208.5 96.2729C238.483 96.2729 267.714 94.8454 297.381 92.4574C332.304 89.646 367.15 86.4313 402.545 86.2489" stroke="black" stroke-width="2" stroke-miterlimit="10"/>
<path d="M24.705 74.7372C87.1844 80.1007 144.288 101.606 208.503 101.541C272.779 101.477 329.745 80.1057 392.301 74.7372" stroke="black" stroke-width="2" stroke-miterlimit="10"/>
<path d="M33.9233 65.555C67.2794 71.3703 96.9832 81.6335 127.759 90.4928C151.971 97.4627 180.354 105.43 208.503 105.348C236.791 105.266 264.86 97.5129 289.247 90.4928C320.023 81.6335 349.727 71.3686 383.083 65.555" stroke="black" stroke-width="2" stroke-miterlimit="10"/>
<path d="M42.2631 57.161C73.9974 64.6012 101.569 76.0927 130.782 85.956C153.933 93.7727 180.443 122 208.5 122C235.915 122 261.856 94.1091 284.557 86.5133C314.399 76.5295 342.404 64.7417 374.743 57.161" stroke="black" stroke-width="2" stroke-miterlimit="10"/>
<path d="M49.838 49.5568C79.3667 56.7911 106.085 66.7984 134.287 75.3731C156.492 82.1255 182.384 89.4017 208.5 89.4017C234.002 89.4017 259.301 82.4217 281.055 75.8735C309.877 67.195 337.056 56.9334 367.165 49.5568" stroke="black" stroke-width="2" stroke-miterlimit="10"/>
<path d="M56.7556 41.1276C84.6379 47.0483 110.92 54.8717 138.32 61.3848C160.132 66.5708 184.344 71.6497 208.503 71.7016C232.57 71.7535 256.988 66.5423 278.686 61.3848C306.086 54.8717 332.368 47.0483 360.251 41.1276" stroke="black" stroke-width="2" stroke-miterlimit="10"/>
<path d="M63.0957 32.0793C110.616 39.7136 157.988 52.733 208.503 52.733C259.018 52.733 306.391 39.7153 353.91 32.0793" stroke="black" stroke-width="2" stroke-miterlimit="10"/>
<path d="M68.9258 23.0159C115.408 27.9291 160.808 35.0564 208.503 35.0564C256.198 35.0564 301.599 27.9291 348.08 23.0159" stroke="black" stroke-width="2" stroke-miterlimit="10"/>
<path d="M74.3076 14.5131C98.3655 15.8904 122.347 17.6592 146.438 18.8725C167.194 19.9184 187.695 20.0523 208.503 20.0523C228.731 20.0523 248.672 19.9485 268.854 18.9561C293.52 17.7429 318.069 15.9205 342.699 14.5115" stroke="black" stroke-width="2" stroke-miterlimit="10"/>
<path d="M79.2899 7.05119C122.433 7.95988 165.339 8.61924 208.503 8.61924C251.667 8.61924 294.573 7.95988 337.716 7.05119" stroke="black" stroke-width="2" stroke-miterlimit="10"/>
<path d="M310.439 1.00992C323.343 21.7641 326.587 44.4393 343.54 64.4387C347.782 69.4423 353.216 73.8904 358.555 78.5476C366.409 85.397 371.883 92.797 376.638 100.425" stroke="black" stroke-width="2" stroke-miterlimit="10"/>
<path d="M287.788 1.01819C294.011 14.7539 297.243 28.8778 301.39 42.8293C304.551 53.4624 306.98 64.6779 313.532 74.8993C316.125 78.9407 319.872 81.7036 325.205 84.7342C332.937 89.1287 336.3 94.6511 339.277 100.429" stroke="black" stroke-width="2" stroke-miterlimit="10"/>
<path d="M265.134 1.02484C269.996 16.7754 272.11 32.7852 275.019 48.668C277.246 60.8273 278.124 73.6609 283.524 85.5659C284.977 88.7705 286.163 90.8757 292.03 91.4982C299.571 92.2998 300.373 96.7278 301.915 100.445" stroke="black" stroke-width="2" stroke-miterlimit="10"/>
<path d="M242.483 1.02484C245.613 18.2112 246.725 35.5147 248.414 52.7562C249.769 66.599 250.027 80.7396 253.517 94.4887C254.149 96.9771 254.908 100.824 258.619 97.3319C259.175 96.8098 259.881 95.1899 261.202 95.0593C263.887 94.7933 264.406 99.8404 264.547 100.456" stroke="black" stroke-width="2" stroke-miterlimit="10"/>
<path d="M219.829 1.01819C221.248 23.8926 221.518 46.7938 222.255 69.6765C222.544 78.6847 222.805 87.6946 223.312 96.6994C223.444 99.0339 222.885 102.173 224.356 104.35C225.769 101.66 224.783 98.6624 226.359 95.9999C227.207 97.3186 227.093 99.074 227.185 100.453" stroke="black" stroke-width="2" stroke-miterlimit="10"/>
<path d="M197.178 1.01819C195.758 23.8926 195.488 46.7938 194.751 69.6765C194.462 78.6847 194.201 87.6946 193.694 96.6994C193.562 99.0339 194.121 102.173 192.65 104.35C191.323 101.651 192.22 98.659 190.647 95.9999C189.824 97.3738 189.934 98.9887 189.821 100.453" stroke="black" stroke-width="2" stroke-miterlimit="10"/>
<path d="M174.523 1.02484C171.393 18.2095 170.278 35.5163 168.592 52.7562C167.237 66.599 166.948 80.738 163.49 94.4887C162.86 96.9888 162.071 100.798 158.388 97.3319C157.782 96.7613 157.134 95.23 155.804 95.0593C153.248 94.7297 152.563 100.001 152.459 100.456" stroke="black" stroke-width="2" stroke-miterlimit="10"/>
<path d="M151.872 1.02484C147.01 16.7737 144.89 32.7869 141.987 48.668C139.763 60.8289 138.82 73.6492 133.482 85.5659C132.044 88.7739 130.837 90.8757 124.976 91.4982C117.453 92.2982 116.624 96.7562 115.091 100.445" stroke="black" stroke-width="2" stroke-miterlimit="10"/>
<path d="M129.218 1.01819C122.761 15.2693 119.487 29.9354 115.146 44.4074C112.112 54.5268 109.713 65.1699 103.474 74.901C100.771 79.1164 96.802 81.8324 91.3312 84.9953C83.8761 89.3061 80.62 94.8234 77.7295 100.429" stroke="black" stroke-width="2" stroke-miterlimit="10"/>
<path d="M106.567 1.00992C93.6657 21.7624 90.4189 44.4393 73.4659 64.4387C69.2238 69.444 63.793 73.8887 58.4512 78.5476C50.5968 85.397 45.1229 92.797 40.3678 100.425" stroke="black" stroke-width="2" stroke-miterlimit="10"/>
</svg>
