<svg width="227" height="44" viewBox="0 0 227 44" fill="none" xmlns="http://www.w3.org/2000/svg">
<path d="M81.375 2.69422H44.625V40.3071H81.375V2.69422Z" fill="#818180"/>
<path d="M54.2758 34.0936L57.0846 32.3535C57.6266 33.3371 58.1188 34.1689 59.3014 34.1689C60.4341 34.1689 61.1494 33.7147 61.1494 31.949V19.9439H64.5986V32.0001C64.5986 35.6577 62.4986 37.3227 59.4497 37.3227C58.37 37.3831 57.2978 37.1073 56.3743 36.5316C55.4507 35.9559 54.7191 35.1073 54.2758 34.0977" fill="#2D2D2C"/>
<path d="M66.4703 33.716L69.279 32.0511C69.5904 32.7008 70.0747 33.2473 70.6761 33.6277C71.2775 34.008 71.9715 34.2068 72.6784 34.2011C74.1077 34.2011 75.0186 33.4701 75.0186 32.4543C75.0186 31.2449 74.0828 30.8149 72.5052 30.1081L71.6428 29.7291C69.1491 28.6447 67.5032 27.2822 67.5032 24.4079C67.5032 21.7593 69.472 19.741 72.5537 19.741C73.5512 19.6668 74.5479 19.8947 75.4197 20.3965C76.2914 20.8984 76.9996 21.6518 77.4559 22.5629L74.7732 24.3326C74.5969 23.8802 74.2905 23.4932 73.8946 23.223C73.4988 22.9528 73.0321 22.8121 72.5563 22.8196C72.3489 22.7981 72.1394 22.8211 71.9411 22.8872C71.7428 22.9532 71.5602 23.0609 71.4048 23.2032C71.2494 23.3456 71.1248 23.5196 71.0388 23.714C70.9527 23.9085 70.9073 24.1192 70.9052 24.3326C70.9052 25.3915 71.5457 25.8202 73.0236 26.4826L73.8859 26.8616C76.818 28.1475 78.4678 29.459 78.4678 32.4099C78.4678 35.5879 76.0292 37.328 72.7519 37.328C71.4767 37.4111 70.2052 37.1148 69.0906 36.4749C67.9761 35.8349 67.0661 34.8787 66.4703 33.7214" fill="#2D2D2C"/>
<g clip-path="url(#clip0_1032_493)">
<path fill-rule="evenodd" clip-rule="evenodd" d="M207.505 16.1363C207.248 17.1708 205.685 23.1385 205.685 23.1385H209.511C209.511 23.1385 207.809 17.1708 207.555 16.1363H207.505Z" fill="black"/>
<path fill-rule="evenodd" clip-rule="evenodd" d="M194 5V38H227V5H194ZM211.408 30.5007L210.072 26.0682H205.126L203.888 30.5007H199.835L205.126 13.2166H210.248L215.607 30.5007H211.408ZM221.036 30.5007H217.133V17.9661H221.036V30.5007ZM219.061 16.4233C217.832 16.4233 217.007 15.5473 217.035 14.4752C217.007 13.345 217.832 12.4993 219.091 12.4993C220.349 12.4993 221.135 13.3449 221.165 14.4752C221.165 15.5473 220.349 16.4233 219.061 16.4233Z" fill="black"/>
</g>
<path d="M0 3L2.91667 37.2017L15.9808 41L29.0833 37.1958L32 3H0ZM24.2233 31.4067L16.0058 33.7902L7.80083 31.3948L7.23833 24.7991H11.26L11.5458 28.1546L16.0117 29.4405L16.0225 29.4643L20.4783 28.2047L20.9483 22.7634H11.5833L11.25 18.5223H21.3042L21.6667 14.1964H6.33333L6 10.0402H26.0483L24.2233 31.4067Z" fill="black"/>
<path fill-rule="evenodd" clip-rule="evenodd" d="M109.237 5.3873C108.092 5.04736 107.243 5.13853 106.625 5.48099C106.007 5.82349 105.468 6.50167 105.121 7.66885C104.771 8.8445 104.652 10.414 104.822 12.3091C104.849 12.6162 104.884 12.93 104.927 13.2498C106.427 12.8598 108.038 12.5517 109.732 12.3367C110.906 10.6535 112.137 9.13572 113.387 7.81953C113.324 7.76761 113.262 7.71637 113.199 7.66583C111.741 6.48481 110.391 5.72974 109.237 5.3873ZM115.5 5.80067C115.326 5.65139 115.152 5.50634 114.978 5.36565C113.339 4.03788 111.659 3.05205 110.036 2.57015C108.405 2.08578 106.73 2.08682 105.26 2.90175C103.789 3.71668 102.874 5.15152 102.379 6.81449C101.886 8.46894 101.776 10.4467 101.967 12.5773C102.012 13.0767 102.074 13.5885 102.152 14.1112C101.666 14.2896 101.197 14.4778 100.746 14.6754C98.8242 15.5182 97.1773 16.5595 95.9901 17.7904C94.7968 19.0277 94 20.535 94 22.246C94 23.957 94.7968 25.4644 95.9901 26.7016C97.1773 27.9325 98.8242 28.9738 100.746 29.8167C101.197 30.0142 101.666 30.2025 102.152 30.3808C102.074 30.9035 102.012 31.4154 101.967 31.915C101.776 34.0454 101.886 36.0231 102.379 37.6778C102.874 39.3407 103.789 40.7754 105.26 41.5903C106.73 42.4054 108.405 42.4063 110.036 41.922C111.659 41.4401 113.338 40.4542 114.978 39.1266C115.152 38.9858 115.326 38.8408 115.5 38.6915C115.674 38.8408 115.848 38.9858 116.022 39.1266C117.661 40.4542 119.34 41.4401 120.964 41.922C122.595 42.4063 124.27 42.4054 125.74 41.5903C127.21 40.7754 128.126 39.3407 128.621 37.6778C129.113 36.0231 129.224 34.0454 129.032 31.915C128.988 31.4154 128.926 30.9035 128.847 30.3808C129.334 30.2025 129.803 30.0142 130.254 29.8167C132.176 28.9738 133.823 27.9325 135.01 26.7016C136.203 25.4644 137 23.957 137 22.246C137 20.535 136.203 19.0277 135.01 17.7904C133.823 16.5595 132.176 15.5182 130.254 14.6754C129.803 14.4778 129.334 14.2896 128.847 14.1111C128.926 13.5884 128.988 13.0767 129.032 12.5773C129.224 10.4467 129.113 8.46894 128.621 6.81449C128.126 5.15152 127.21 3.71668 125.74 2.90175C124.27 2.08682 122.595 2.08578 120.963 2.57015C119.34 3.05205 117.661 4.03788 116.021 5.36565C115.848 5.50634 115.674 5.65139 115.5 5.80067ZM115.5 9.80367C114.855 10.4788 114.21 11.2189 113.573 12.0182C114.208 11.9925 114.851 11.9794 115.5 11.9794C116.149 11.9794 116.792 11.9925 117.427 12.0182C116.789 11.2189 116.144 10.4788 115.5 9.80367ZM121.268 12.3366C120.094 10.6535 118.862 9.13569 117.613 7.81953C117.676 7.76761 117.738 7.71637 117.8 7.66583C119.259 6.48481 120.609 5.72974 121.762 5.3873C122.907 5.04736 123.757 5.13853 124.375 5.48099C124.993 5.82349 125.531 6.50167 125.878 7.66885C126.228 8.8445 126.348 10.414 126.178 12.3091C126.15 12.6162 126.115 12.9299 126.073 13.2497C124.573 12.8597 122.961 12.5517 121.268 12.3366ZM119.655 15.1077C118.321 14.9803 116.931 14.9127 115.5 14.9127C114.069 14.9127 112.679 14.9803 111.345 15.1077C110.6 16.2474 109.88 17.4659 109.198 18.7533C108.578 19.9256 108.021 21.0943 107.53 22.246C108.021 23.3978 108.578 24.5665 109.198 25.7389C109.88 27.0262 110.6 28.2447 111.345 29.3844C112.679 29.5117 114.069 29.5794 115.5 29.5794C116.931 29.5794 118.321 29.5117 119.655 29.3844C120.4 28.2447 121.12 27.0262 121.801 25.7389C122.422 24.5665 122.978 23.3978 123.47 22.246C122.978 21.0943 122.422 19.9256 121.801 18.7533C121.12 17.4659 120.4 16.2473 119.655 15.1077ZM124.882 18.4459C124.701 18.0826 124.514 17.7192 124.322 17.3562C124.013 16.7722 123.696 16.2001 123.371 15.6407C124.118 15.7862 124.838 15.9516 125.527 16.1348C125.346 16.8854 125.131 17.6574 124.882 18.4459ZM124.882 26.0461C124.701 26.4095 124.514 26.7729 124.322 27.136C124.013 27.7199 123.696 28.2919 123.371 28.8513C124.118 28.7058 124.838 28.5404 125.527 28.3572C125.346 27.6066 125.131 26.8346 124.882 26.0461ZM128.266 27.4742C127.85 25.7913 127.286 24.0344 126.579 22.246C127.286 20.4576 127.85 18.7007 128.266 17.0178C128.561 17.1321 128.847 17.2501 129.125 17.3716C130.834 18.1212 132.126 18.9762 132.969 19.8509C133.807 20.7193 134.133 21.5269 134.133 22.246C134.133 22.9651 133.807 23.7727 132.969 24.6411C132.126 25.5158 130.834 26.3708 129.125 27.1205C128.847 27.242 128.561 27.3599 128.266 27.4742ZM126.073 31.2423C124.573 31.6322 122.961 31.9405 121.268 32.1555C120.094 33.8386 118.862 35.3563 117.613 36.6725C117.676 36.7245 117.738 36.7758 117.801 36.8262C119.259 38.0072 120.609 38.7625 121.762 39.1048C122.907 39.4448 123.757 39.3536 124.375 39.0113C124.993 38.6687 125.531 37.9905 125.878 36.8233C126.229 35.6476 126.348 34.078 126.178 32.1831C126.15 31.8759 126.115 31.5621 126.073 31.2423ZM115.5 34.6884C116.144 34.0132 116.789 33.2731 117.427 32.4738C116.792 32.4996 116.149 32.5128 115.5 32.5128C114.851 32.5128 114.208 32.4996 113.573 32.4738C114.21 33.2731 114.855 34.0132 115.5 34.6884ZM107.629 28.8512C107.304 28.2919 106.987 27.7198 106.678 27.136C106.485 26.7729 106.299 26.4095 106.118 26.0461C105.869 26.8346 105.654 27.6066 105.473 28.3571C106.162 28.5404 106.882 28.7057 107.629 28.8512ZM104.927 31.2423C106.427 31.6322 108.038 31.9402 109.732 32.1552C110.906 33.8383 112.137 35.3563 113.387 36.6725C113.324 36.7245 113.262 36.7758 113.199 36.8262C111.741 38.0072 110.391 38.7625 109.237 39.1048C108.092 39.4448 107.243 39.3536 106.625 39.0113C106.007 38.6687 105.468 37.9905 105.121 36.8233C104.771 35.6476 104.652 34.078 104.822 32.1831C104.849 31.8759 104.884 31.5621 104.927 31.2423ZM102.733 27.474C103.149 25.7912 103.714 24.0343 104.42 22.246C103.714 20.4577 103.149 18.7008 102.733 17.018C102.438 17.1322 102.152 17.2501 101.875 17.3716C100.166 18.1212 98.8741 18.9762 98.0304 19.8509C97.1929 20.7193 96.8667 21.5269 96.8667 22.246C96.8667 22.9651 97.1929 23.7727 98.0304 24.6411C98.8741 25.5158 100.166 26.3708 101.875 27.1205C102.152 27.2419 102.438 27.3598 102.733 27.474ZM105.473 16.1349C105.654 16.8854 105.869 17.6574 106.118 18.4459C106.299 18.0826 106.485 17.7192 106.678 17.3562C106.987 16.7723 107.304 16.2002 107.629 15.6408C106.882 15.7863 106.162 15.9516 105.473 16.1349ZM111.2 22.246C111.2 19.816 113.125 17.846 115.5 17.846C117.875 17.846 119.8 19.816 119.8 22.246C119.8 24.676 117.875 26.646 115.5 26.646C113.125 26.646 111.2 24.676 111.2 22.246ZM115.5 20.7794C114.708 20.7794 114.067 21.436 114.067 22.246C114.067 23.056 114.708 23.7127 115.5 23.7127C116.292 23.7127 116.933 23.056 116.933 22.246C116.933 21.436 116.292 20.7794 115.5 20.7794Z" fill="black"/>
<path d="M165.333 21.9751C165.333 20.386 165.983 18.862 167.14 17.7383C168.296 16.6147 169.864 15.9834 171.5 15.9834C173.136 15.9834 174.704 16.6147 175.86 17.7383C177.017 18.862 177.667 20.386 177.667 21.9751C177.667 23.5642 177.017 25.0882 175.86 26.2119C174.704 27.3355 173.136 27.9668 171.5 27.9668C169.864 27.9668 168.296 27.3355 167.14 26.2119C165.983 25.0882 165.333 23.5642 165.333 21.9751ZM153 33.9585C153 32.3694 153.65 30.8454 154.806 29.7217C155.963 28.5981 157.531 27.9668 159.167 27.9668H165.333V33.9585C165.333 35.5476 164.684 37.0716 163.527 38.1953C162.371 39.3189 160.802 39.9502 159.167 39.9502C157.531 39.9502 155.963 39.3189 154.806 38.1953C153.65 37.0716 153 35.5476 153 33.9585ZM165.333 4V15.9834H171.5C173.136 15.9834 174.704 15.3521 175.86 14.2285C177.017 13.1048 177.667 11.5808 177.667 9.9917C177.667 8.4026 177.017 6.87859 175.86 5.75493C174.704 4.63127 173.136 4 171.5 4H165.333ZM153 9.9917C153 11.5808 153.65 13.1048 154.806 14.2285C155.963 15.3521 157.531 15.9834 159.167 15.9834H165.333V4H159.167C157.531 4 155.963 4.63127 154.806 5.75493C153.65 6.87859 153 8.4026 153 9.9917ZM153 21.9751C153 23.5642 153.65 25.0882 154.806 26.2119C155.963 27.3355 157.531 27.9668 159.167 27.9668H165.333V15.9834H159.167C157.531 15.9834 155.963 16.6147 154.806 17.7383C153.65 18.862 153 20.386 153 21.9751Z" fill="black"/>
<defs>
<clipPath id="clip0_1032_493">
<rect x="194" y="5" width="33" height="33" rx="3" fill="white"/>
</clipPath>
</defs>
</svg>
