<svg width="113" height="34" viewBox="0 0 113 34" fill="none" xmlns="http://www.w3.org/2000/svg">
<path d="M11.025 13.11L11.79 16.26C11.85 16.26 11.895 16.2 11.925 16.08C11.985 15.96 12.03 15.825 12.06 15.675C12.12 15.525 12.165 15.39 12.195 15.27C12.225 15.12 12.27 15.015 12.33 14.955C12.9 11.865 13.35 9.435 13.68 7.665C14.01 5.865 14.25 4.515 14.4 3.615C14.55 2.715 14.64 2.145 14.67 1.905C14.73 1.665 14.775 1.515 14.805 1.455V1.14C14.805 0.989998 14.88 0.899998 15.03 0.869998H15.075C15.225 0.749998 15.42 0.689998 15.66 0.689998L18.99 0.824998L19.17 1.005H20.475C20.475 1.095 20.49 1.29 20.52 1.59C20.58 1.89 20.625 2.205 20.655 2.535C20.715 2.835 20.76 3.135 20.79 3.435C20.85 3.735 20.88 3.93 20.88 4.02C20.91 4.14 20.955 4.32 21.015 4.56C21.075 4.8 21.165 5.31 21.285 6.09C21.435 6.87 21.63 8.04 21.87 9.6C22.11 11.13 22.425 13.245 22.815 15.945C22.875 15.975 22.965 16.17 23.085 16.53C23.205 16.89 23.325 17.28 23.445 17.7C23.595 18.09 23.715 18.45 23.805 18.78C23.925 19.11 23.985 19.275 23.985 19.275L25.38 4.74L25.92 1.59L26.325 1.32H36C36.12 1.32 36.18 1.44 36.18 1.68L36.135 1.86L30.96 32.145C30.93 32.175 30.915 32.355 30.915 32.685C30.915 32.925 30.735 33.045 30.375 33.045H21.06C20.91 33.045 20.775 32.865 20.655 32.505C20.535 32.115 20.43 31.695 20.34 31.245C20.28 30.765 20.22 30.315 20.16 29.895C20.13 29.475 20.115 29.22 20.115 29.13H19.845L18.27 19.185L17.37 25.935V26.07C17.37 26.22 17.28 26.325 17.1 26.385L15.66 33H7.65C7.59 33 7.425 32.985 7.155 32.955C6.915 32.895 6.735 32.85 6.615 32.82C6.465 32.82 6.39 32.76 6.39 32.64L0.72 0.959999L0.9 0.824998H9.18L11.025 13.11ZM39.8454 6.405C39.8754 5.955 39.9954 5.46 40.2054 4.92C40.4454 4.35 40.7154 3.81 41.0154 3.3C41.3454 2.79 41.6904 2.325 42.0504 1.905C42.4404 1.485 42.8154 1.17 43.1754 0.959999C44.4354 0.869999 45.5454 0.794999 46.5054 0.735C47.4954 0.674999 48.4404 0.629998 49.3404 0.599999C50.2404 0.569999 51.1554 0.554999 52.0854 0.554999C53.0154 0.524998 54.0504 0.509997 55.1904 0.509997H56.0004C56.3004 0.509997 56.5404 0.554998 56.7204 0.644998C56.9304 0.734999 57.1554 0.779999 57.3954 0.779999H57.6654L60.3654 3.12C60.5154 3.3 60.6504 3.765 60.7704 4.515C60.9204 5.265 61.0404 6.195 61.1304 7.305C61.2504 8.415 61.3404 9.69 61.4004 11.13C61.4904 12.54 61.5654 14.01 61.6254 15.54C61.6854 17.07 61.7304 18.615 61.7604 20.175C61.7904 21.735 61.8054 23.22 61.8054 24.63V27.06V28.095V28.59C61.8054 28.83 61.7754 28.98 61.7154 29.04C61.7154 29.34 61.5954 29.715 61.3554 30.165C61.1154 30.615 60.8004 31.05 60.4104 31.47C60.0504 31.89 59.6454 32.25 59.1954 32.55C58.7454 32.85 58.3254 33 57.9354 33H44.6604C44.6604 33 44.6004 32.955 44.4804 32.865C44.3904 32.745 44.2554 32.61 44.0754 32.46C43.9254 32.28 43.7604 32.115 43.5804 31.965C43.4304 31.785 43.2954 31.635 43.1754 31.515C43.1454 31.485 43.0554 31.395 42.9054 31.245C42.7854 31.095 42.6354 30.93 42.4554 30.75C42.3054 30.54 42.1554 30.345 42.0054 30.165C41.8554 29.955 41.7654 29.805 41.7354 29.715C41.1654 28.965 40.7754 27.9 40.5654 26.52C40.3554 25.11 40.2204 23.64 40.1604 22.11C40.1304 20.55 40.1304 19.05 40.1604 17.61C40.1904 16.14 40.1904 14.97 40.1604 14.1C40.1604 13.8 40.1454 13.29 40.1154 12.57C40.1154 11.82 40.1004 11.04 40.0704 10.23C40.0404 9.42 39.9954 8.655 39.9354 7.935C39.9054 7.185 39.8754 6.675 39.8454 6.405ZM49.6104 12.975V15.765C49.6104 17.025 49.6404 18.42 49.7004 19.95C49.7604 21.48 49.8654 23.1 50.0154 24.81H53.7054C53.7654 24.81 53.8404 24.675 53.9304 24.405C54.0204 24.105 54.0654 23.865 54.0654 23.685V21.93C54.0654 19.77 54.0204 17.49 53.9304 15.09C53.8704 12.66 53.7954 10.365 53.7054 8.205C53.6154 8.145 53.3754 8.025 52.9854 7.845C52.5954 7.665 52.3404 7.545 52.2204 7.485C52.2204 7.485 52.1454 7.485 51.9954 7.485C51.8454 7.455 51.7404 7.44 51.6804 7.44C51.5004 7.44 51.2904 7.515 51.0504 7.665C50.8404 7.785 50.6304 7.95 50.4204 8.16C50.2404 8.34 50.0754 8.535 49.9254 8.745C49.7754 8.955 49.6854 9.15 49.6554 9.33V10.05C49.6554 10.41 49.6404 10.785 49.6104 11.175C49.6104 11.535 49.6104 11.895 49.6104 12.255V12.975ZM67.3706 31.335L65.4806 1.905V1.455C65.4806 1.425 65.4656 1.38 65.4356 1.32C65.4356 1.26 65.4356 1.2 65.4356 1.14C65.4356 1.02 65.5256 0.929999 65.7056 0.869998C67.2356 0.809999 68.6156 0.779999 69.8456 0.779999C71.1056 0.749999 72.4406 0.735 73.8506 0.735H82.6256C82.7756 0.735 82.8656 0.749999 82.8956 0.779999C82.9256 0.809999 82.9406 0.839998 82.9406 0.869998C82.9706 0.899998 83.0006 0.944998 83.0306 1.005C83.0606 1.035 83.1356 1.08 83.2556 1.14C83.5856 1.41 83.8856 1.65 84.1556 1.86C84.4256 2.07 84.6656 2.28 84.8756 2.49C85.1156 2.67 85.3406 2.865 85.5506 3.075C85.7906 3.285 86.0456 3.525 86.3156 3.795C86.3156 3.885 86.3906 3.93 86.5406 3.93C86.4806 4.98 86.4806 6.03 86.5406 7.08C86.6006 8.1 86.6756 9.135 86.7656 10.185C86.8856 11.235 86.9906 12.285 87.0806 13.335C87.1706 14.355 87.2156 15.39 87.2156 16.44V16.62V17.205V17.385C86.4356 18.075 85.6706 18.66 84.9206 19.14C84.1706 19.59 83.4056 20.145 82.6256 20.805L85.1906 23.1C85.3106 23.16 85.4756 23.265 85.6856 23.415C85.8956 23.535 86.1206 23.67 86.3606 23.82C86.6006 23.97 86.8106 24.12 86.9906 24.27C87.2006 24.39 87.3356 24.48 87.3956 24.54C87.4256 25.86 87.4556 27.03 87.4856 28.05C87.5456 29.07 87.5756 30.18 87.5756 31.38V32.865L87.2156 33L81.1406 32.865L80.8256 32.28V27.195L80.6006 26.385L77.6756 24.405C77.5856 24.435 77.5256 24.435 77.4956 24.405C77.4356 24.405 77.3756 24.39 77.3156 24.36C77.2856 24.3 77.2706 24.27 77.2706 24.27C77.1806 24.27 77.0156 24.285 76.7756 24.315C76.5356 24.315 76.3556 24.315 76.2356 24.315V32.865C76.2356 32.895 76.0406 32.925 75.6506 32.955C75.2906 32.985 75.0056 33 74.7956 33H74.5256C74.3756 33 74.1956 33 73.9856 33C73.8056 33.03 73.5956 33.045 73.3556 33.045H72.9056H72.3656C72.0356 33.045 71.7656 33.03 71.5556 33C71.3456 33 71.1356 33 70.9256 33H70.6556C70.3256 33 69.9056 32.985 69.3956 32.955C68.8856 32.925 68.4656 32.91 68.1356 32.91C67.8056 32.88 67.6106 32.865 67.5506 32.865L67.3706 31.335ZM75.2006 9.15C75.2006 10.29 75.2156 11.52 75.2456 12.84C75.3056 14.16 75.4856 15.375 75.7856 16.485C75.7856 16.545 75.8156 16.68 75.8756 16.89C75.9356 17.07 75.9656 17.175 75.9656 17.205H76.1456C76.5656 17.205 76.9706 17.115 77.3606 16.935C77.7806 16.725 78.1556 16.47 78.4856 16.17C78.8156 15.87 79.1006 15.555 79.3406 15.225C79.6106 14.895 79.8206 14.61 79.9706 14.37V12.57C79.9706 11.7 79.9556 10.92 79.9256 10.23C79.9256 9.51 79.8656 8.67 79.7456 7.71C79.6256 7.29 79.4006 7.05 79.0706 6.99C78.7406 6.9 78.2306 6.855 77.5406 6.855H77.0456C76.7456 6.855 76.4306 6.885 76.1006 6.945C75.7706 6.975 75.5156 7.08 75.3356 7.26V7.62C75.3356 7.83 75.3056 8.04 75.2456 8.25C75.2156 8.43 75.2006 8.595 75.2006 8.745V9.15ZM91.4214 0.779999H100.556V4.245V7.62C100.556 8.73 100.556 9.75 100.556 10.68C100.586 11.61 100.661 12.345 100.781 12.885L101.141 12.615V12.75L104.651 9.375L104.741 0.779999L111.356 0.644998V12.57C111.266 12.63 111.086 12.735 110.816 12.885C110.576 13.035 110.396 13.14 110.276 13.2L105.776 16.17C105.926 16.26 106.136 16.395 106.406 16.575C106.676 16.725 107.051 16.95 107.531 17.25C108.011 17.52 108.626 17.88 109.376 18.33C110.126 18.75 111.056 19.275 112.166 19.905C112.136 19.935 112.121 20.25 112.121 20.85V22.245C112.121 22.995 112.121 23.835 112.121 24.765C112.151 25.665 112.181 26.58 112.211 27.51C112.241 28.44 112.286 29.325 112.346 30.165C112.406 31.005 112.466 31.71 112.526 32.28C112.526 32.34 112.481 32.475 112.391 32.685C112.301 32.895 112.226 33 112.166 33H105.146L104.966 32.73V30.57V27.825C104.966 26.895 104.936 26.025 104.876 25.215C104.846 24.375 104.801 23.685 104.741 23.145C104.681 23.025 104.501 22.875 104.201 22.695C103.931 22.485 103.631 22.29 103.301 22.11C102.971 21.93 102.626 21.78 102.266 21.66C101.936 21.51 101.681 21.435 101.501 21.435C101.381 21.435 101.321 21.48 101.321 21.57V22.065C101.321 22.275 101.306 22.5 101.276 22.74C101.246 22.98 101.231 23.19 101.231 23.37V23.775C101.231 24.225 101.246 24.81 101.276 25.53C101.306 26.25 101.336 27.015 101.366 27.825C101.396 28.605 101.426 29.37 101.456 30.12C101.486 30.84 101.501 31.425 101.501 31.875V32.01C101.501 32.16 101.471 32.37 101.411 32.64C101.351 32.88 101.321 33 101.321 33H93.1314L92.7264 32.865C92.7264 32.835 92.7114 32.7 92.6814 32.46C92.6514 32.22 92.6064 31.935 92.5464 31.605C92.5164 31.275 92.5014 31.02 92.5014 30.84C92.3214 29.1 92.2164 27.36 92.1864 25.62C92.1864 23.85 92.1714 22.065 92.1414 20.265C92.1114 19.995 92.0664 19.44 92.0064 18.6C91.9764 17.76 91.9314 16.785 91.8714 15.675C91.8114 14.535 91.7514 13.335 91.6914 12.075C91.6614 10.785 91.6314 9.585 91.6014 8.475C91.5714 7.335 91.5414 6.345 91.5114 5.505C91.4814 4.665 91.4664 4.11 91.4664 3.84C91.4664 3.66 91.4514 3.315 91.4214 2.805C91.4214 2.295 91.4214 1.815 91.4214 1.365V0.779999Z" fill="#242F35"/>
</svg>
